<svg width="1920" height="11540" viewBox="0 0 1920 11540" fill="none" xmlns="http://www.w3.org/2000/svg">
<path d="M1085.28 8973.58L1819.11 9397.38" stroke="#477494" stroke-opacity="0.3" stroke-width="40"/>
<path d="M1452.19 8762.8L1819.11 8974.14V9396.82L1452.19 9608.16L1085.28 9396.82V8974.14L1452.19 8762.8Z" fill="#E2E7EB"/>
<path d="M1105.28 8985.7L1452.19 8785.88L1799.11 8985.7V9385.26L1452.19 9585.08L1105.28 9385.26V8985.7Z" stroke="#477494" stroke-opacity="0.3" stroke-width="40"/>
<path d="M1452.19 8762.8V9608.16" stroke="#477494" stroke-opacity="0.3" stroke-width="40"/>
<path d="M1085.28 9396.29C1372.92 9233.07 1534.6 9142.26 1819.11 8973.61" stroke="#477494" stroke-opacity="0.3" stroke-width="40"/>
<path d="M787 9127.79C1045.01 8984.7 1190.06 8905.17 1444.98 8756.62" stroke="#E2E7EB" stroke-width="40"/>
<path d="M1236.95 9742.26C1524.49 9578.85 1686.1 9487.94 1970.51 9319.1" stroke="#E2E7EB" stroke-width="40"/>
<path d="M1106.12 8985.66L1796.37 9385.4" stroke="#477494" stroke-opacity="0.3" stroke-width="40"/>
<path d="M1110.88 9425.21L1531.84 9668.67" stroke="#E2E7EB" stroke-width="40"/>
<path d="M1451.92 8751.53L2019.73 9077" stroke="#E2E7EB" stroke-width="40"/>
<path d="M1829.92 9464.54L1826.33 8974.22" stroke="#E2E7EB" stroke-width="40"/>
<path d="M1079.54 8978.05L1074.25 8782.9" stroke="#E2E7EB" stroke-width="40"/>
<g filter="url(#filter0_i_140_2)">
<rect x="533.938" y="-93.3867" width="193.543" height="1488.5" transform="rotate(-60 533.938 -93.3867)" fill="#585859"/>
</g>
<path d="M1299.05 1079.01L1906.85 1430.02" stroke="#585859" stroke-opacity="0.3" stroke-width="35"/>
<path d="M1602.95 904.432L1906.85 1079.47V1429.56L1602.95 1604.6L1299.05 1429.56V1079.47L1602.95 904.432Z" fill="#E2E7EB"/>
<path d="M1316.55 1089.59L1602.95 924.627L1889.35 1089.59V1419.45L1602.95 1584.41L1316.55 1419.45V1089.59Z" stroke="#585859" stroke-opacity="0.3" stroke-width="35"/>
<path d="M1602.95 904.432V1604.6" stroke="#585859" stroke-opacity="0.3" stroke-width="35"/>
<path d="M1299.05 1429.12C1537.29 1293.93 1671.2 1218.71 1906.85 1079.03" stroke="#585859" stroke-opacity="0.3" stroke-width="35"/>
<path d="M1052 1206.73C1291.28 1073.39 1425.76 999.209 1662.49 861.346" stroke="#E2E7EB" stroke-width="35"/>
<path d="M1424.67 1715.67C1662.83 1580.33 1796.69 1505.03 2032.25 1365.19" stroke="#E2E7EB" stroke-width="35"/>
<path d="M1316.31 1089.02L1888.02 1420.1" stroke="#585859" stroke-opacity="0.3" stroke-width="35"/>
<path d="M1097.68 1322.85L1669.39 1653.93" stroke="#E2E7EB" stroke-width="35"/>
<path d="M1500.42 835.117L2073.01 1164.66" stroke="#E2E7EB" stroke-width="35"/>
<path d="M1915.81 1485.65L1914.29 825" stroke="#E2E7EB" stroke-width="35"/>
<path d="M1291.43 1581.73L1289.91 921.076" stroke="#E2E7EB" stroke-width="35"/>
<path d="M1430.68 7674.41L1843.22 7912.65" stroke="#585859" stroke-opacity="0.3" stroke-width="20"/>
<path d="M1636.95 7555.91L1843.22 7674.72V7912.34L1636.95 8031.15L1430.68 7912.34V7674.72L1636.95 7555.91Z" fill="#E2E7EB"/>
<path d="M1440.68 7680.5L1636.95 7567.45L1833.22 7680.5V7906.56L1636.95 8019.61L1440.68 7906.56V7680.5Z" stroke="#585859" stroke-opacity="0.3" stroke-width="20"/>
<path d="M1636.95 7555.91V8031.15" stroke="#585859" stroke-opacity="0.3" stroke-width="20"/>
<path d="M1430.68 7912.04C1592.39 7820.28 1683.28 7769.23 1843.22 7674.42" stroke="#585859" stroke-opacity="0.3" stroke-width="20"/>
<path d="M1263 7761.1C1425.41 7670.59 1516.69 7620.24 1677.36 7526.67" stroke="#E2E7EB" stroke-width="20"/>
<path d="M1515.95 8106.54C1677.6 8014.67 1768.45 7963.56 1928.33 7868.65" stroke="#E2E7EB" stroke-width="20"/>
<path d="M1442.4 7681.2L1830.44 7905.92" stroke="#585859" stroke-opacity="0.3" stroke-width="20"/>
<path d="M1294 7839.91L1682.04 8064.63" stroke="#E2E7EB" stroke-width="20"/>
<path d="M1567.36 7508.87L1956 7732.54" stroke="#E2E7EB" stroke-width="20"/>
<path d="M1849.3 7950.41L1848.27 7502" stroke="#E2E7EB" stroke-width="20"/>
<path d="M1425.51 8015.62L1424.48 7567.21" stroke="#E2E7EB" stroke-width="20"/>
<path d="M33.6826 6588.41L446.222 6826.65" stroke="#585859" stroke-opacity="0.3" stroke-width="20"/>
<path d="M239.952 6469.91L446.222 6588.72V6826.34L239.952 6945.15L33.6826 6826.34V6588.72L239.952 6469.91Z" fill="#E2E7EB"/>
<path d="M43.6826 6594.5L239.952 6481.45L436.222 6594.5V6820.56L239.952 6933.61L43.6826 6820.56V6594.5Z" stroke="#585859" stroke-opacity="0.3" stroke-width="20"/>
<path d="M239.951 6469.91L239.951 6945.15" stroke="#585859" stroke-opacity="0.3" stroke-width="20"/>
<path d="M33.6826 6826.04C195.389 6734.28 286.276 6683.23 446.222 6588.42" stroke="#585859" stroke-opacity="0.3" stroke-width="20"/>
<path d="M-134 6675.1C28.4098 6584.59 119.688 6534.24 280.361 6440.67" stroke="#E2E7EB" stroke-width="20"/>
<path d="M118.949 7020.54C280.596 6928.67 371.449 6877.56 531.333 6782.65" stroke="#E2E7EB" stroke-width="20"/>
<path d="M45.3984 6595.2L433.437 6819.92" stroke="#585859" stroke-opacity="0.3" stroke-width="20"/>
<path d="M-102.995 6753.91L285.044 6978.63" stroke="#E2E7EB" stroke-width="20"/>
<path d="M170.359 6422.87L559 6646.54" stroke="#E2E7EB" stroke-width="20"/>
<path d="M452.3 6864.41L451.271 6416" stroke="#E2E7EB" stroke-width="20"/>
<path d="M28.5098 6929.62L27.4805 6481.21" stroke="#E2E7EB" stroke-width="20"/>
<path d="M39.7129 2118.13L425.265 2340.79" stroke="#585859" stroke-opacity="0.3" stroke-width="20"/>
<path d="M232.489 2007.39L425.265 2118.42V2340.5L232.489 2451.53L39.7129 2340.5V2118.42L232.489 2007.39Z" fill="#E2E7EB"/>
<path d="M49.7129 2124.2L232.489 2018.93L415.265 2124.2V2334.72L232.489 2439.99L49.7129 2334.72V2124.2Z" stroke="#585859" stroke-opacity="0.3" stroke-width="20"/>
<path d="M232.489 2007.39L232.489 2451.53" stroke="#585859" stroke-opacity="0.3" stroke-width="20"/>
<path d="M39.7129 2340.21C190.841 2254.46 275.782 2206.75 425.265 2118.14" stroke="#585859" stroke-opacity="0.3" stroke-width="20"/>
<path d="M-117 2199.15C34.7854 2114.56 120.093 2067.51 270.255 1980.06" stroke="#E2E7EB" stroke-width="20"/>
<path d="M119.401 2521.99C270.473 2436.14 355.383 2388.37 504.808 2299.66" stroke="#E2E7EB" stroke-width="20"/>
<path d="M50.6631 2124.48L413.317 2334.5" stroke="#585859" stroke-opacity="0.3" stroke-width="20"/>
<path d="M-88.0234 2272.8L274.631 2482.82" stroke="#E2E7EB" stroke-width="20"/>
<path d="M167.449 1963.42L530.666 2172.46" stroke="#E2E7EB" stroke-width="20"/>
<path d="M430.946 2376.08L429.984 1957" stroke="#E2E7EB" stroke-width="20"/>
<path d="M34.8789 2437.02L33.917 2017.94" stroke="#E2E7EB" stroke-width="20"/>
<path d="M792.463 2234.45L1664.53 2738.08" stroke="#585859" stroke-opacity="0.3" stroke-width="40"/>
<path d="M1228.5 1983.97L1664.53 2235.12V2737.41L1228.5 2988.56L792.463 2737.41V2235.12L1228.5 1983.97Z" fill="#E2E7EB"/>
<path d="M812.463 2246.68L1228.5 2007.05L1644.53 2246.68V2725.85L1228.49 2965.48L812.463 2725.85V2246.68Z" stroke="#585859" stroke-opacity="0.3" stroke-width="40"/>
<path d="M1228.49 1983.97V2988.56" stroke="#585859" stroke-opacity="0.3" stroke-width="40"/>
<path d="M792.463 2736.78C1134.29 2542.82 1326.42 2434.9 1664.53 2234.48" stroke="#585859" stroke-opacity="0.3" stroke-width="40"/>
<path d="M438 2417.7C745.963 2246.87 919.095 2151.93 1223.38 1974.62" stroke="#E2E7EB" stroke-width="40"/>
<path d="M972.707 3147.92C1314.41 2953.74 1506.46 2845.69 1844.44 2645.05" stroke="#E2E7EB" stroke-width="40"/>
<path d="M817.229 2248.81L1637.5 2723.84" stroke="#585859" stroke-opacity="0.3" stroke-width="40"/>
<path d="M503.541 2584.3L1323.81 3059.33" stroke="#E2E7EB" stroke-width="40"/>
<path d="M1234.21 1974.11L1902.93 2357.34" stroke="#E2E7EB" stroke-width="40"/>
<path d="M1677.38 2817.89L1675.2 1870" stroke="#E2E7EB" stroke-width="40"/>
<path d="M781.528 2955.74L779.353 2007.85" stroke="#E2E7EB" stroke-width="40"/>
<path d="M505.277 3165L1239.11 3588.8" stroke="#477494" stroke-opacity="0.3" stroke-width="40"/>
<path d="M872.195 2954.22L1239.11 3165.56V3588.24L872.195 3799.58L505.277 3588.24V3165.56L872.195 2954.22Z" fill="#E2E7EB"/>
<path d="M525.277 3177.12L872.195 2977.3L1219.11 3177.12V3576.68L872.195 3776.5L525.277 3576.68V3177.12Z" stroke="#477494" stroke-opacity="0.3" stroke-width="40"/>
<path d="M872.194 2954.22V3799.58" stroke="#477494" stroke-opacity="0.3" stroke-width="40"/>
<path d="M505.277 3587.7C792.924 3424.49 954.596 3333.67 1239.11 3165.02" stroke="#477494" stroke-opacity="0.3" stroke-width="40"/>
<path d="M207 3319.2C495.898 3158.21 658.267 3068.65 944.076 2902.2" stroke="#E2E7EB" stroke-width="40"/>
<path d="M656.951 3933.67C944.491 3770.27 1106.1 3679.35 1390.51 3510.51" stroke="#E2E7EB" stroke-width="40"/>
<path d="M526.118 3177.08L1216.37 3576.81" stroke="#477494" stroke-opacity="0.3" stroke-width="40"/>
<path d="M262.152 3459.39L952.405 3859.13" stroke="#E2E7EB" stroke-width="40"/>
<path d="M748.401 2870.53L1439.72 3268.41" stroke="#E2E7EB" stroke-width="40"/>
<path d="M1249.92 3655.96L1247.01 3046.17" stroke="#E2E7EB" stroke-width="40"/>
<path d="M496.076 3771.96L494.245 2974.31" stroke="#E2E7EB" stroke-width="40"/>
<path d="M185.277 4036.68L919.112 4460.48" stroke="#477494" stroke-opacity="0.3" stroke-width="40"/>
<path d="M552.195 3825.9L919.112 4037.24V4459.92L552.195 4671.26L185.277 4459.92V4037.24L552.195 3825.9Z" fill="#E2E7EB"/>
<path d="M205.277 4048.8L552.195 3848.98L899.112 4048.8V4448.36L552.195 4648.18L205.277 4448.36V4048.8Z" stroke="#477494" stroke-opacity="0.3" stroke-width="40"/>
<path d="M552.194 3825.9V4671.26" stroke="#477494" stroke-opacity="0.3" stroke-width="40"/>
<path d="M185.277 4459.38C472.924 4296.17 634.596 4205.36 919.112 4036.71" stroke="#477494" stroke-opacity="0.3" stroke-width="40"/>
<path d="M-113 4190.88C175.898 4029.9 338.267 3940.33 624.076 3773.88" stroke="#E2E7EB" stroke-width="40"/>
<path d="M336.951 4805.36C624.491 4641.95 786.104 4551.03 1070.51 4382.2" stroke="#E2E7EB" stroke-width="40"/>
<path d="M206.118 4048.76L896.371 4448.5" stroke="#477494" stroke-opacity="0.3" stroke-width="40"/>
<path d="M-57.8477 4331.08L632.405 4730.81" stroke="#E2E7EB" stroke-width="40"/>
<path d="M428.401 3742.21L1119.72 4140.09" stroke="#E2E7EB" stroke-width="40"/>
<path d="M929.924 4527.64L926.328 4037.32" stroke="#E2E7EB" stroke-width="40"/>
<path d="M176.076 4643.64L174.245 3846" stroke="#E2E7EB" stroke-width="40"/>
<path d="M1345.51 4250.09L1920 4581.87" stroke="#C7BD30" stroke-opacity="0.3" stroke-width="25"/>
<path d="M1632.76 4085.08L1920 4250.53V4581.43L1632.76 4746.88L1345.51 4581.43V4250.53L1632.76 4085.08Z" fill="#E2E7EB"/>
<path d="M1358.01 4257.75L1632.76 4099.5L1907.5 4257.75V4574.2L1632.76 4732.45L1358.01 4574.2V4257.75Z" stroke="#C7BD30" stroke-opacity="0.3" stroke-width="25"/>
<path d="M1632.76 4085.08V4746.88" stroke="#C7BD30" stroke-opacity="0.3" stroke-width="25"/>
<path d="M1345.51 4581.01C1570.7 4453.23 1697.27 4382.14 1920 4250.11" stroke="#C7BD30" stroke-opacity="0.3" stroke-width="25"/>
<path d="M1112 4370.81C1338.17 4244.78 1465.28 4174.66 1689.03 4044.35" stroke="#E2E7EB" stroke-width="25"/>
<path d="M1464.25 4851.86C1689.36 4723.94 1815.88 4652.76 2038.53 4520.58" stroke="#E2E7EB" stroke-width="25"/>
<path d="M1361.83 4259.55L1902.2 4572.49" stroke="#C7BD30" stroke-opacity="0.3" stroke-width="25"/>
<path d="M1155.18 4480.56L1695.55 4793.5" stroke="#E2E7EB" stroke-width="25"/>
<path d="M1535.84 4019.56L2077.06 4331.05" stroke="#E2E7EB" stroke-width="25"/>
<path d="M1928.47 4634.45L1927.04 4010" stroke="#E2E7EB" stroke-width="25"/>
<path d="M1338.31 4725.26L1336.87 4100.81" stroke="#E2E7EB" stroke-width="25"/>
<path d="M1091.3 5050.95L1758.76 5436.41" stroke="#C7BD30" stroke-opacity="0.3" stroke-width="40"/>
<path d="M1425.03 4859.23L1758.76 5051.45V5435.9L1425.03 5628.13L1091.3 5435.9V5051.45L1425.03 4859.23Z" fill="#E2E7EB"/>
<path d="M1111.3 5063.01L1425.03 4882.31L1738.76 5063.01V5424.34L1425.03 5605.05L1111.3 5424.34V5063.01Z" stroke="#C7BD30" stroke-opacity="0.3" stroke-width="40"/>
<path d="M1425.03 4859.23V5628.13" stroke="#C7BD30" stroke-opacity="0.3" stroke-width="40"/>
<path d="M1091.3 5435.41C1352.93 5286.96 1499.98 5204.36 1758.76 5050.96" stroke="#C7BD30" stroke-opacity="0.3" stroke-width="40"/>
<path d="M820 5191.2C1082.77 5044.77 1230.45 4963.31 1490.41 4811.91" stroke="#E2E7EB" stroke-width="40"/>
<path d="M1229.25 5750.09C1490.79 5601.47 1637.78 5518.77 1896.46 5365.21" stroke="#E2E7EB" stroke-width="40"/>
<path d="M1110.25 5061.93L1738.07 5425.51" stroke="#C7BD30" stroke-opacity="0.3" stroke-width="40"/>
<path d="M870.164 5318.71L1497.98 5682.29" stroke="#E2E7EB" stroke-width="40"/>
<path d="M1312.43 4783.11L1941.23 5145" stroke="#E2E7EB" stroke-width="40"/>
<path d="M1768.59 5497.5L1766.93 4772" stroke="#E2E7EB" stroke-width="40"/>
<path d="M1082.93 5603L1081.26 4877.51" stroke="#E2E7EB" stroke-width="40"/>
<path d="M1415.8 6545.49L1912.28 6832.2" stroke="#CB3838" stroke-opacity="0.3" stroke-width="20"/>
<path d="M1664.04 6402.88L1912.28 6545.86V6831.83L1664.04 6974.81L1415.8 6831.83V6545.86L1664.04 6402.88Z" fill="#E2E7EB"/>
<path d="M1425.8 6551.65L1664.04 6414.42L1902.28 6551.65V6826.05L1664.04 6963.27L1425.8 6826.05V6551.65Z" stroke="#CB3838" stroke-opacity="0.3" stroke-width="20"/>
<path d="M1664.04 6402.88V6974.81" stroke="#CB3838" stroke-opacity="0.3" stroke-width="20"/>
<path d="M1415.8 6831.47C1610.41 6721.04 1719.79 6659.6 1912.28 6545.5" stroke="#CB3838" stroke-opacity="0.3" stroke-width="20"/>
<path d="M1214 6649.81C1409.45 6540.9 1519.3 6480.3 1712.67 6367.69" stroke="#E2E7EB" stroke-width="20"/>
<path d="M1518.41 7065.53C1712.95 6954.98 1822.29 6893.47 2014.7 6779.24" stroke="#E2E7EB" stroke-width="20"/>
<path d="M1429.9 6553.66L1896.89 6824.1" stroke="#CB3838" stroke-opacity="0.3" stroke-width="20"/>
<path d="M1251.31 6744.66L1718.3 7015.1" stroke="#E2E7EB" stroke-width="20"/>
<path d="M1580.29 6346.27L2048 6615.45" stroke="#E2E7EB" stroke-width="20"/>
<path d="M1919.59 6877.64L1918.35 6338" stroke="#E2E7EB" stroke-width="20"/>
<path d="M1409.57 6956.12L1408.34 6416.48" stroke="#E2E7EB" stroke-width="20"/>
<path d="M115.72 5547.29L951.514 6029.97" stroke="#CB3838" stroke-opacity="0.3" stroke-width="40"/>
<path d="M533.617 5307.23L951.514 5547.93V6029.34L533.617 6270.04L115.72 6029.34V5547.93L533.617 5307.23Z" fill="#E2E7EB"/>
<path d="M135.72 5559.49L533.617 5330.31L931.514 5559.49V6017.78L533.617 6246.96L135.72 6017.78V5559.49Z" stroke="#CB3838" stroke-opacity="0.3" stroke-width="40"/>
<path d="M533.616 5307.23L533.616 6270.04" stroke="#CB3838" stroke-opacity="0.3" stroke-width="40"/>
<path d="M115.72 6028.73C443.333 5842.83 627.467 5739.4 951.513 5547.32" stroke="#CB3838" stroke-opacity="0.3" stroke-width="40"/>
<path d="M-224 5722.92C105.038 5539.56 289.966 5437.56 615.485 5247.98" stroke="#E2E7EB" stroke-width="40"/>
<path d="M288.468 6422.77C615.959 6236.66 800.026 6133.11 1123.95 5940.81" stroke="#E2E7EB" stroke-width="40"/>
<path d="M139.457 5561.05L925.613 6016.33" stroke="#CB3838" stroke-opacity="0.3" stroke-width="40"/>
<path d="M-161.185 5882.59L624.972 6337.87" stroke="#E2E7EB" stroke-width="40"/>
<path d="M392.624 5211.91L1180 5665.07" stroke="#E2E7EB" stroke-width="40"/>
<path d="M963.828 6106.47L961.743 5198" stroke="#E2E7EB" stroke-width="40"/>
<path d="M105.241 6238.58L103.156 5330.11" stroke="#E2E7EB" stroke-width="40"/>
<g filter="url(#filter1_i_140_2)">
<path d="M1919.75 483.137L2016.52 650.75L96.8322 1759.08L0.0607513 1591.47L1919.75 483.137Z" fill="#477494"/>
</g>
<g filter="url(#filter2_i_140_2)">
<path d="M-96.0615 1759.61L0.709908 1592L1920.4 2700.33L1823.63 2867.95L-96.0615 1759.61Z" fill="#585859"/>
</g>
<g filter="url(#filter3_i_140_2)">
<path d="M1919.62 2700L2016.4 2867.61L96.7091 3975.95L-0.0622956 3808.33L1919.62 2700Z" fill="#477494"/>
</g>
<g filter="url(#filter4_i_140_2)">
<path d="M-97.0615 3975.61L-0.290092 3808L1919.4 4916.33L1822.63 5083.95L-97.0615 3975.61Z" fill="#585859"/>
</g>
<g filter="url(#filter5_i_140_2)">
<path d="M1918.62 4916L2015.4 5083.61L95.7091 6191.95L-1.0623 6024.33L1918.62 4916Z" fill="#477494"/>
</g>
<g filter="url(#filter6_i_140_2)">
<path d="M-98.0615 6194.61L-1.29009 6027L1918.4 7135.33L1821.63 7302.95L-98.0615 6194.61Z" fill="#585859"/>
</g>
<g filter="url(#filter7_i_140_2)">
<path d="M1950.23 9358.74L3106.72 10329.1L1183.15 12621.6L26.659 11651.2L1950.23 9358.74Z" fill="#585859"/>
</g>
<g filter="url(#filter8_i_140_2)">
<path d="M-1145 11357.4L-390.156 10050L2201.47 11546.3L1446.63 12853.7L-1145 11357.4Z" fill="#365870"/>
</g>
<g filter="url(#filter9_i_140_2)">
<path d="M1917.62 7135L2014.4 7302.61L94.7091 8410.95L-2.0623 8243.33L1917.62 7135Z" fill="#477494"/>
</g>
<g filter="url(#filter10_i_140_2)">
<path d="M-97.0615 8410.61L-0.290092 8243L2168.75 9495.3L2071.98 9662.91L-97.0615 8410.61Z" fill="#585859"/>
</g>
<defs>
<filter id="filter0_i_140_2" x="533.938" y="-261" width="1385.85" height="915.865" filterUnits="userSpaceOnUse" color-interpolation-filters="sRGB">
<feFlood flood-opacity="0" result="BackgroundImageFix"/>
<feBlend mode="normal" in="SourceGraphic" in2="BackgroundImageFix" result="shape"/>
<feColorMatrix in="SourceAlpha" type="matrix" values="0 0 0 0 0 0 0 0 0 0 0 0 0 0 0 0 0 0 127 0" result="hardAlpha"/>
<feOffset dy="4"/>
<feGaussianBlur stdDeviation="2"/>
<feComposite in2="hardAlpha" operator="arithmetic" k2="-1" k3="1"/>
<feColorMatrix type="matrix" values="0 0 0 0 0 0 0 0 0 0 0 0 0 0 0 0 0 0 0.25 0"/>
<feBlend mode="normal" in2="shape" result="effect1_innerShadow_140_2"/>
</filter>
<filter id="filter1_i_140_2" x="0.0605469" y="483.137" width="2016.46" height="1279.95" filterUnits="userSpaceOnUse" color-interpolation-filters="sRGB">
<feFlood flood-opacity="0" result="BackgroundImageFix"/>
<feBlend mode="normal" in="SourceGraphic" in2="BackgroundImageFix" result="shape"/>
<feColorMatrix in="SourceAlpha" type="matrix" values="0 0 0 0 0 0 0 0 0 0 0 0 0 0 0 0 0 0 127 0" result="hardAlpha"/>
<feOffset dy="4"/>
<feGaussianBlur stdDeviation="2"/>
<feComposite in2="hardAlpha" operator="arithmetic" k2="-1" k3="1"/>
<feColorMatrix type="matrix" values="0 0 0 0 0 0 0 0 0 0 0 0 0 0 0 0 0 0 0.25 0"/>
<feBlend mode="normal" in2="shape" result="effect1_innerShadow_140_2"/>
</filter>
<filter id="filter2_i_140_2" x="-96.0615" y="1592" width="2016.46" height="1279.95" filterUnits="userSpaceOnUse" color-interpolation-filters="sRGB">
<feFlood flood-opacity="0" result="BackgroundImageFix"/>
<feBlend mode="normal" in="SourceGraphic" in2="BackgroundImageFix" result="shape"/>
<feColorMatrix in="SourceAlpha" type="matrix" values="0 0 0 0 0 0 0 0 0 0 0 0 0 0 0 0 0 0 127 0" result="hardAlpha"/>
<feOffset dy="4"/>
<feGaussianBlur stdDeviation="2"/>
<feComposite in2="hardAlpha" operator="arithmetic" k2="-1" k3="1"/>
<feColorMatrix type="matrix" values="0 0 0 0 0 0 0 0 0 0 0 0 0 0 0 0 0 0 0.25 0"/>
<feBlend mode="normal" in2="shape" result="effect1_innerShadow_140_2"/>
</filter>
<filter id="filter3_i_140_2" x="-0.0625" y="2700" width="2016.46" height="1279.95" filterUnits="userSpaceOnUse" color-interpolation-filters="sRGB">
<feFlood flood-opacity="0" result="BackgroundImageFix"/>
<feBlend mode="normal" in="SourceGraphic" in2="BackgroundImageFix" result="shape"/>
<feColorMatrix in="SourceAlpha" type="matrix" values="0 0 0 0 0 0 0 0 0 0 0 0 0 0 0 0 0 0 127 0" result="hardAlpha"/>
<feOffset dy="4"/>
<feGaussianBlur stdDeviation="2"/>
<feComposite in2="hardAlpha" operator="arithmetic" k2="-1" k3="1"/>
<feColorMatrix type="matrix" values="0 0 0 0 0 0 0 0 0 0 0 0 0 0 0 0 0 0 0.25 0"/>
<feBlend mode="normal" in2="shape" result="effect1_innerShadow_140_2"/>
</filter>
<filter id="filter4_i_140_2" x="-97.0615" y="3808" width="2016.46" height="1279.95" filterUnits="userSpaceOnUse" color-interpolation-filters="sRGB">
<feFlood flood-opacity="0" result="BackgroundImageFix"/>
<feBlend mode="normal" in="SourceGraphic" in2="BackgroundImageFix" result="shape"/>
<feColorMatrix in="SourceAlpha" type="matrix" values="0 0 0 0 0 0 0 0 0 0 0 0 0 0 0 0 0 0 127 0" result="hardAlpha"/>
<feOffset dy="4"/>
<feGaussianBlur stdDeviation="2"/>
<feComposite in2="hardAlpha" operator="arithmetic" k2="-1" k3="1"/>
<feColorMatrix type="matrix" values="0 0 0 0 0 0 0 0 0 0 0 0 0 0 0 0 0 0 0.25 0"/>
<feBlend mode="normal" in2="shape" result="effect1_innerShadow_140_2"/>
</filter>
<filter id="filter5_i_140_2" x="-1.0625" y="4916" width="2016.46" height="1279.95" filterUnits="userSpaceOnUse" color-interpolation-filters="sRGB">
<feFlood flood-opacity="0" result="BackgroundImageFix"/>
<feBlend mode="normal" in="SourceGraphic" in2="BackgroundImageFix" result="shape"/>
<feColorMatrix in="SourceAlpha" type="matrix" values="0 0 0 0 0 0 0 0 0 0 0 0 0 0 0 0 0 0 127 0" result="hardAlpha"/>
<feOffset dy="4"/>
<feGaussianBlur stdDeviation="2"/>
<feComposite in2="hardAlpha" operator="arithmetic" k2="-1" k3="1"/>
<feColorMatrix type="matrix" values="0 0 0 0 0 0 0 0 0 0 0 0 0 0 0 0 0 0 0.25 0"/>
<feBlend mode="normal" in2="shape" result="effect1_innerShadow_140_2"/>
</filter>
<filter id="filter6_i_140_2" x="-98.0615" y="6027" width="2016.46" height="1279.95" filterUnits="userSpaceOnUse" color-interpolation-filters="sRGB">
<feFlood flood-opacity="0" result="BackgroundImageFix"/>
<feBlend mode="normal" in="SourceGraphic" in2="BackgroundImageFix" result="shape"/>
<feColorMatrix in="SourceAlpha" type="matrix" values="0 0 0 0 0 0 0 0 0 0 0 0 0 0 0 0 0 0 127 0" result="hardAlpha"/>
<feOffset dy="4"/>
<feGaussianBlur stdDeviation="2"/>
<feComposite in2="hardAlpha" operator="arithmetic" k2="-1" k3="1"/>
<feColorMatrix type="matrix" values="0 0 0 0 0 0 0 0 0 0 0 0 0 0 0 0 0 0 0.25 0"/>
<feBlend mode="normal" in2="shape" result="effect1_innerShadow_140_2"/>
</filter>
<filter id="filter7_i_140_2" x="26.6592" y="9358.74" width="3080.06" height="3266.84" filterUnits="userSpaceOnUse" color-interpolation-filters="sRGB">
<feFlood flood-opacity="0" result="BackgroundImageFix"/>
<feBlend mode="normal" in="SourceGraphic" in2="BackgroundImageFix" result="shape"/>
<feColorMatrix in="SourceAlpha" type="matrix" values="0 0 0 0 0 0 0 0 0 0 0 0 0 0 0 0 0 0 127 0" result="hardAlpha"/>
<feOffset dy="4"/>
<feGaussianBlur stdDeviation="2"/>
<feComposite in2="hardAlpha" operator="arithmetic" k2="-1" k3="1"/>
<feColorMatrix type="matrix" values="0 0 0 0 0 0 0 0 0 0 0 0 0 0 0 0 0 0 0.25 0"/>
<feBlend mode="normal" in2="shape" result="effect1_innerShadow_140_2"/>
</filter>
<filter id="filter8_i_140_2" x="-1145" y="10050" width="3346.47" height="2807.71" filterUnits="userSpaceOnUse" color-interpolation-filters="sRGB">
<feFlood flood-opacity="0" result="BackgroundImageFix"/>
<feBlend mode="normal" in="SourceGraphic" in2="BackgroundImageFix" result="shape"/>
<feColorMatrix in="SourceAlpha" type="matrix" values="0 0 0 0 0 0 0 0 0 0 0 0 0 0 0 0 0 0 127 0" result="hardAlpha"/>
<feOffset dy="4"/>
<feGaussianBlur stdDeviation="2"/>
<feComposite in2="hardAlpha" operator="arithmetic" k2="-1" k3="1"/>
<feColorMatrix type="matrix" values="0 0 0 0 0 0 0 0 0 0 0 0 0 0 0 0 0 0 0.25 0"/>
<feBlend mode="normal" in2="shape" result="effect1_innerShadow_140_2"/>
</filter>
<filter id="filter9_i_140_2" x="-2.0625" y="7135" width="2016.46" height="1279.95" filterUnits="userSpaceOnUse" color-interpolation-filters="sRGB">
<feFlood flood-opacity="0" result="BackgroundImageFix"/>
<feBlend mode="normal" in="SourceGraphic" in2="BackgroundImageFix" result="shape"/>
<feColorMatrix in="SourceAlpha" type="matrix" values="0 0 0 0 0 0 0 0 0 0 0 0 0 0 0 0 0 0 127 0" result="hardAlpha"/>
<feOffset dy="4"/>
<feGaussianBlur stdDeviation="2"/>
<feComposite in2="hardAlpha" operator="arithmetic" k2="-1" k3="1"/>
<feColorMatrix type="matrix" values="0 0 0 0 0 0 0 0 0 0 0 0 0 0 0 0 0 0 0.25 0"/>
<feBlend mode="normal" in2="shape" result="effect1_innerShadow_140_2"/>
</filter>
<filter id="filter10_i_140_2" x="-97.0615" y="8243" width="2265.81" height="1423.91" filterUnits="userSpaceOnUse" color-interpolation-filters="sRGB">
<feFlood flood-opacity="0" result="BackgroundImageFix"/>
<feBlend mode="normal" in="SourceGraphic" in2="BackgroundImageFix" result="shape"/>
<feColorMatrix in="SourceAlpha" type="matrix" values="0 0 0 0 0 0 0 0 0 0 0 0 0 0 0 0 0 0 127 0" result="hardAlpha"/>
<feOffset dy="4"/>
<feGaussianBlur stdDeviation="2"/>
<feComposite in2="hardAlpha" operator="arithmetic" k2="-1" k3="1"/>
<feColorMatrix type="matrix" values="0 0 0 0 0 0 0 0 0 0 0 0 0 0 0 0 0 0 0.25 0"/>
<feBlend mode="normal" in2="shape" result="effect1_innerShadow_140_2"/>
</filter>
</defs>
</svg>
