<svg width="945" height="1119" viewBox="0 0 945 1119" fill="none" xmlns="http://www.w3.org/2000/svg">
<path d="M35.1738 294.615L911.448 826.106" stroke="#365870" stroke-width="40"/>
<path d="M55.1738 306.591L473.311 53.6443L891.448 306.591V814.131L473.311 1067.08L55.1738 814.131V306.591Z" fill="#477494" stroke="#365870" stroke-width="40"/>
<path d="M473.311 30.2695L473.311 1090.45" stroke="#365870" stroke-width="40"/>
<path d="M35.1738 824.736C378.654 620.045 571.707 506.153 911.448 294.644" stroke="#365870" stroke-width="40"/>
<path d="M28.8198 275.076C200.898 178.413 297.85 125.089 466.205 21.5982" stroke="#477494" stroke-width="40"/>
<path d="M474.675 1098.3C650.798 997.136 750.025 941.284 922.371 833.324" stroke="#477494" stroke-width="40"/>
<path d="M60.0605 309.766L884.293 811.082" stroke="#365870" stroke-width="40"/>
<path d="M31.6973 841.533L465.058 1100.69" stroke="#477494" stroke-width="40"/>
<path d="M476.179 18.1035L915.012 278.995" stroke="#477494" stroke-width="40"/>
<path d="M924.843 821.852L920.108 287.591" stroke="#477494" stroke-width="40"/>
<path d="M25.3765 838.221L20.711 291.269" stroke="#477494" stroke-width="40"/>
</svg>
