<svg width="73" height="73" viewBox="0 0 73 73" fill="none" xmlns="http://www.w3.org/2000/svg">
<path d="M64.0832 11.7207H8.91679C4.00029 11.7207 0 15.721 0 20.6375V52.3625C0 57.279 4.00029 61.2793 8.91679 61.2793H64.0832C68.9997 61.2793 73 57.279 73 52.3625V20.6385C73.001 15.721 69.0007 11.7207 64.0832 11.7207ZM59.7261 17.5379L36.5 32.5017L13.2739 17.5379H59.7261ZM64.0832 55.4631H8.91679C7.20751 55.4631 5.8172 54.0718 5.8172 52.3635V20.8033L34.7054 39.3795C34.7442 39.4038 34.7859 39.4203 34.8256 39.4426C34.8673 39.4658 34.91 39.4881 34.9526 39.5094C35.1766 39.6248 35.4073 39.7179 35.6429 39.779C35.6672 39.7858 35.6914 39.7887 35.7156 39.7945C35.9745 39.8556 36.2363 39.8934 36.4981 39.8934H36.5C36.5019 39.8934 36.5039 39.8934 36.5039 39.8934C36.7656 39.8934 37.0274 39.8565 37.2863 39.7945C37.3105 39.7887 37.3348 39.7858 37.359 39.779C37.5946 39.7179 37.8244 39.6248 38.0493 39.5094C38.092 39.4881 38.1346 39.4658 38.1763 39.4426C38.2161 39.4203 38.2578 39.4038 38.2965 39.3795L67.1847 20.8033V52.3625C67.1838 54.0718 65.7925 55.4631 64.0832 55.4631Z" fill="white"/>
</svg>
