<svg width="103" height="103" viewBox="0 0 103 103" fill="none" xmlns="http://www.w3.org/2000/svg">
<path d="M51.4999 8.75586C27.8958 8.75586 8.58325 28.0254 8.58325 51.7584C8.58325 73.2168 24.2908 91.0272 44.8049 94.2459V64.2043H33.9041V51.7584H44.8049V42.2738C44.8049 31.5017 51.1995 25.5792 61.0274 25.5792C65.7053 25.5792 70.5978 26.3946 70.5978 26.3946V36.995H65.1903C59.8687 36.995 58.1949 40.2996 58.1949 43.6901V51.7584H70.1258L68.1945 64.2043H58.1949V94.2459C68.3078 92.6486 77.5169 87.4887 84.1591 79.6972C90.8013 71.9061 94.4398 61.9966 94.4166 51.7584C94.4166 28.0254 75.1041 8.75586 51.4999 8.75586Z" fill="white"/>
</svg>
