<svg width="144" height="147" viewBox="0 0 144 147" fill="none" xmlns="http://www.w3.org/2000/svg">
<path d="M9.67578 38.4551L134.354 108.066" stroke="#585859" stroke-width="8"/>
<path d="M12.1758 40.016L72.0147 6.69424L131.854 40.016V106.505L72.0147 139.827L12.1758 106.505V40.016Z" stroke="#585859" stroke-width="8"/>
<path d="M72.0146 3.83276L72.0146 142.688" stroke="#585859" stroke-width="8"/>
<path d="M9.67578 107.883C58.5467 81.074 86.0146 66.1572 134.354 38.4552" stroke="#585859" stroke-width="8"/>
<path d="M8.47266 36.0601C33.3826 23.1608 47.4162 16.0429 71.7965 2.24945" stroke="none" stroke-width="5"/>
<path d="M72.1553 143.745C96.9173 130.665 110.869 123.445 135.094 109.475" stroke="none" stroke-width="5"/>
<path d="M13.2178 40.4395L130.491 106.098" stroke="#585859" stroke-width="8"/>
<path d="M8.25684 109.556L70.7157 143.954" stroke="none" stroke-width="5"/>
<path d="M73.1904 2.67334L135.911 37.0034" stroke="none" stroke-width="5"/>
<path d="M136.191 119.095L135.588 37.3567" stroke="none" stroke-width="5"/>
<path d="M8.29004 108.06L7.62033 37.4178" stroke="none" stroke-width="5"/>
</svg>
