<svg width="117" height="117" viewBox="0 0 117 117" fill="none" xmlns="http://www.w3.org/2000/svg">
<path d="M74.752 18.2812H42.2443C35.8904 18.2861 29.7981 20.8123 25.3052 25.3052C20.8123 29.7981 18.2861 35.8904 18.2812 42.2443V74.752C18.2851 81.1066 20.8109 87.1998 25.3039 91.6935C29.7969 96.1872 35.8898 98.7139 42.2443 98.7188H74.752C81.1063 98.7129 87.1986 96.1859 91.6914 91.6924C96.1842 87.1989 98.7103 81.1063 98.7151 74.752V42.2443C98.7122 35.8898 96.1866 29.7964 91.6933 25.3031C87.2 20.8098 81.1065 18.2842 74.752 18.2812ZM90.6275 74.752C90.6265 78.9622 88.9536 82.9996 85.9766 85.9766C82.9996 88.9536 78.9622 90.6265 74.752 90.6275H42.2443C40.1597 90.6275 38.0955 90.2168 36.1696 89.419C34.2437 88.6211 32.4939 87.4517 31.02 85.9774C29.5461 84.5032 28.3771 82.7531 27.5796 80.827C26.7822 78.9009 26.3721 76.8367 26.3725 74.752V42.2443C26.3721 40.1599 26.7823 38.0957 27.5797 36.1699C28.3772 34.244 29.5463 32.4941 31.0202 31.0202C32.4941 29.5463 34.244 28.3772 36.1699 27.5797C38.0957 26.7823 40.1599 26.3721 42.2443 26.3725H74.752C78.9612 26.3735 82.9977 28.046 85.974 31.0223C88.9503 33.9987 90.6228 38.0352 90.6238 42.2443L90.6275 74.752Z" fill="white"/>
<path d="M58.5001 37.703C47.0268 37.703 37.7034 47.03 37.7034 58.4997C37.7034 69.9694 47.0305 79.2965 58.5001 79.2965C69.9698 79.2965 79.2969 69.9694 79.2969 58.4997C79.2969 47.03 69.9734 37.703 58.5001 37.703ZM58.5001 71.2052C55.1304 71.2057 51.8985 69.8675 49.5155 67.4851C47.1324 65.1027 45.7933 61.8712 45.7928 58.5015C45.7923 55.1318 47.1305 51.9 49.5129 49.5169C51.8953 47.1338 55.1268 45.7947 58.4965 45.7942C61.8662 45.7937 65.098 47.1319 67.4811 49.5143C69.8642 51.8967 71.2033 55.1282 71.2038 58.4979C71.2042 61.8676 69.8661 65.0995 67.4837 67.4825C65.1013 69.8656 61.8698 71.2047 58.5001 71.2052ZM79.3407 32.873C80.3261 32.8738 81.2891 33.1666 82.108 33.7144C82.927 34.2623 83.5652 35.0407 83.9419 35.9511C84.3186 36.8616 84.417 37.8633 84.2246 38.8296C84.0322 39.796 83.5577 40.6836 82.8609 41.3804C82.1642 42.0771 81.2766 42.5516 80.3102 42.744C79.3438 42.9365 78.3421 42.8381 77.4317 42.4613C76.5212 42.0846 75.7429 41.4464 75.195 40.6275C74.6471 39.8085 74.3543 38.8455 74.3536 37.8602C74.3536 35.1107 76.2183 32.873 79.3407 32.873Z" fill="white"/>
</svg>
