<svg width="96" height="96" viewBox="0 0 96 96" fill="none" xmlns="http://www.w3.org/2000/svg">
<g clip-path="url(#clip0_33_81)">
<path d="M48 0C21.4875 0 0 21.4875 0 48C0 74.5125 21.4875 96 48 96C74.5125 96 96 74.5125 96 48C96 21.4875 74.5125 0 48 0ZM34.575 68.0813H25.2188V38.1375H34.575V68.0813ZM29.6438 34.3875H29.5687C26.175 34.3875 23.9813 32.1 23.9813 29.1938C23.9813 26.2313 26.25 24 29.7 24C33.15 24 35.2687 26.2313 35.3438 29.1938C35.3625 32.0813 33.1688 34.3875 29.6438 34.3875ZM72 68.0813H61.3875V52.5938C61.3875 48.5438 59.7375 45.7688 56.0813 45.7688C53.2875 45.7688 51.7313 47.6438 51.0188 49.4438C50.7563 50.0813 50.7937 50.9812 50.7937 51.9V68.0813H40.275C40.275 68.0813 40.4062 40.6312 40.275 38.1375H50.7937V42.8438C51.4125 40.7812 54.7688 37.8562 60.1313 37.8562C66.7875 37.8562 72 42.1687 72 51.4312V68.0813Z" fill="white"/>
</g>
<defs>
<clipPath id="clip0_33_81">
<rect width="96" height="96" fill="white"/>
</clipPath>
</defs>
</svg>
