<svg width="575" height="460" viewBox="0 0 575 460" fill="none" xmlns="http://www.w3.org/2000/svg">
<path d="M130.254 214.723L114.787 189.258L247.632 108.567L263.099 134.031L130.254 214.723Z" fill="#365870"/>
<path d="M268.16 426.998L252.59 401.596L385.11 320.371L400.679 345.772L268.16 426.998Z" fill="#365870"/>
<path d="M245.639 128.594L259.895 102.432L396.378 176.805L382.122 202.967L245.639 128.594Z" fill="#365870"/>
<path d="M119.634 348.369L133.89 322.208L270.373 396.581L256.117 422.742L119.634 348.369Z" fill="#365870"/>
<path d="M401.081 335.178L371.29 335.556L369.317 180.137L399.108 179.759L401.081 335.178Z" fill="#365870"/>
<path d="M152.626 351.836L122.836 352.285L120.492 196.871L150.282 196.422L152.626 351.836Z" fill="#365870"/>
<path d="M126.205 115.373L402.258 274.795" stroke="white" stroke-width="10"/>
<path d="M131.205 118.474L264.232 41.8521L397.258 118.474V271.696L264.232 348.318L131.205 271.696V118.474Z" fill="#365870" stroke="white" stroke-width="10"/>
<path d="M264.232 36.082V354.088" stroke="white" stroke-width="10"/>
<path d="M126.205 274.375C234.412 212.977 295.229 178.815 402.258 115.372" stroke="white" stroke-width="10"/>
<path d="M14 173.373C122.677 112.812 183.757 79.1206 291.272 16.5059" stroke="#365870" stroke-width="10"/>
<path d="M183.262 404.523C291.428 343.055 352.223 308.853 459.21 245.34" stroke="#365870" stroke-width="10"/>
<path d="M134.045 119.918L393.703 270.289" stroke="white" stroke-width="10"/>
<path d="M34.7471 226.109L294.405 376.481" stroke="#365870" stroke-width="10"/>
<path d="M217.663 4.59961L477.724 154.273" stroke="#365870" stroke-width="10"/>
<path d="M406.325 300.055L405.537 17.2387" stroke="#365870" stroke-width="10"/>
<path d="M122.744 343.689L122.056 43.6339" stroke="#365870" stroke-width="10"/>
<path d="M38.5684 438.61C36.5501 440.326 34.2998 441.648 31.8174 442.576C29.335 443.484 26.7516 443.938 24.0674 443.938C22.0088 443.938 20.0208 443.666 18.1035 443.121C16.2064 442.596 14.4303 441.85 12.7754 440.881C11.1204 439.892 9.60677 438.721 8.23438 437.369C6.86198 435.997 5.69141 434.483 4.72266 432.828C3.75391 431.153 2.99707 429.357 2.45215 427.439C1.92741 425.522 1.66504 423.534 1.66504 421.476C1.66504 419.417 1.92741 417.439 2.45215 415.542C2.99707 413.645 3.75391 411.869 4.72266 410.214C5.69141 408.539 6.86198 407.025 8.23438 405.673C9.60677 404.3 11.1204 403.13 12.7754 402.161C14.4303 401.192 16.2064 400.446 18.1035 399.921C20.0208 399.376 22.0088 399.104 24.0674 399.104C26.7516 399.104 29.335 399.568 31.8174 400.496C34.2998 401.404 36.5501 402.716 38.5684 404.432L34.0273 412C32.7155 410.668 31.2018 409.629 29.4863 408.882C27.7708 408.115 25.9645 407.731 24.0674 407.731C22.1702 407.731 20.3841 408.095 18.709 408.821C17.054 409.548 15.6009 410.537 14.3496 411.788C13.0983 413.019 12.1094 414.472 11.3828 416.147C10.6562 417.802 10.293 419.578 10.293 421.476C10.293 423.393 10.6562 425.189 11.3828 426.864C12.1094 428.539 13.0983 430.003 14.3496 431.254C15.6009 432.505 17.054 433.494 18.709 434.221C20.3841 434.947 22.1702 435.311 24.0674 435.311C25.1572 435.311 26.2168 435.179 27.2461 434.917C28.2754 434.655 29.2542 434.291 30.1826 433.827V421.476H38.5684V438.61ZM75.7744 443H73.7764L70.5674 438.55C69.7803 439.256 68.9427 439.922 68.0547 440.548C67.1868 441.153 66.2686 441.688 65.2998 442.152C64.3311 442.596 63.332 442.95 62.3027 443.212C61.2936 443.474 60.2643 443.605 59.2148 443.605C56.9342 443.605 54.7848 443.222 52.7666 442.455C50.7686 441.688 49.0127 440.578 47.499 439.125C46.0055 437.652 44.8249 435.855 43.957 433.736C43.0892 431.617 42.6553 429.205 42.6553 426.501C42.6553 423.978 43.0892 421.667 43.957 419.568C44.8249 417.449 46.0055 415.633 47.499 414.119C49.0127 412.605 50.7686 411.435 52.7666 410.607C54.7848 409.76 56.9342 409.336 59.2148 409.336C60.2643 409.336 61.3037 409.467 62.333 409.729C63.3623 409.992 64.3613 410.355 65.3301 410.819C66.2988 411.284 67.2171 411.828 68.085 412.454C68.973 413.08 69.8005 413.756 70.5674 414.482L73.7764 410.638H75.7744V443ZM67.4492 426.501C67.4492 425.371 67.2272 424.281 66.7832 423.231C66.3594 422.162 65.7741 421.223 65.0273 420.416C64.2806 419.589 63.4027 418.933 62.3936 418.448C61.4046 417.944 60.3451 417.691 59.2148 417.691C58.0846 417.691 57.015 417.883 56.0059 418.267C55.0169 418.65 54.1491 419.215 53.4023 419.962C52.6758 420.709 52.1006 421.637 51.6768 422.747C51.2529 423.837 51.041 425.088 51.041 426.501C51.041 427.914 51.2529 429.175 51.6768 430.285C52.1006 431.375 52.6758 432.293 53.4023 433.04C54.1491 433.787 55.0169 434.352 56.0059 434.735C57.015 435.119 58.0846 435.311 59.2148 435.311C60.3451 435.311 61.4046 435.068 62.3936 434.584C63.4027 434.079 64.2806 433.424 65.0273 432.616C65.7741 431.789 66.3594 430.85 66.7832 429.801C67.2272 428.731 67.4492 427.631 67.4492 426.501ZM123.334 443H115.1V422.414C115.1 421.849 114.989 421.314 114.767 420.81C114.565 420.305 114.272 419.861 113.889 419.478C113.505 419.094 113.061 418.801 112.557 418.6C112.052 418.378 111.517 418.267 110.952 418.267C110.387 418.267 109.852 418.378 109.348 418.6C108.863 418.801 108.429 419.094 108.046 419.478C107.683 419.861 107.39 420.305 107.168 420.81C106.966 421.314 106.865 421.849 106.865 422.414V443H98.6006V422.414C98.6006 421.849 98.4896 421.314 98.2676 420.81C98.0658 420.305 97.7731 419.861 97.3896 419.478C97.0062 419.094 96.5622 418.801 96.0576 418.6C95.5531 418.378 95.0182 418.267 94.4531 418.267C93.888 418.267 93.3532 418.378 92.8486 418.6C92.3643 418.801 91.9303 419.094 91.5469 419.478C91.1836 419.861 90.891 420.305 90.6689 420.81C90.4671 421.314 90.3662 421.849 90.3662 422.414V443H82.1016V410.577H84.0996L86.3398 413.06C87.4902 412.091 88.7516 411.344 90.124 410.819C91.5166 410.274 92.9596 410.002 94.4531 410.002C95.9668 410.002 97.4401 410.285 98.873 410.85C100.326 411.415 101.598 412.394 102.688 413.786C103.192 413.1 103.767 412.515 104.413 412.03C105.059 411.546 105.735 411.152 106.441 410.85C107.168 410.547 107.915 410.335 108.682 410.214C109.449 410.073 110.205 410.002 110.952 410.002C112.668 410.002 114.272 410.325 115.766 410.971C117.279 411.617 118.591 412.505 119.701 413.635C120.831 414.745 121.719 416.057 122.365 417.57C123.011 419.084 123.334 420.699 123.334 422.414V443ZM142.285 435.068C142.608 435.169 142.931 435.24 143.254 435.28C143.577 435.3 143.9 435.311 144.223 435.311C145.03 435.311 145.807 435.2 146.554 434.978C147.3 434.756 147.997 434.443 148.643 434.039C149.309 433.615 149.894 433.111 150.398 432.525C150.923 431.92 151.347 431.254 151.67 430.527L157.725 436.612C156.958 437.702 156.07 438.681 155.061 439.549C154.072 440.417 152.992 441.153 151.821 441.759C150.671 442.364 149.45 442.818 148.158 443.121C146.887 443.444 145.575 443.605 144.223 443.605C141.942 443.605 139.793 443.182 137.774 442.334C135.776 441.486 134.021 440.306 132.507 438.792C131.013 437.278 129.833 435.482 128.965 433.403C128.097 431.304 127.663 429.004 127.663 426.501C127.663 423.938 128.097 421.597 128.965 419.478C129.833 417.358 131.013 415.552 132.507 414.059C134.021 412.565 135.776 411.405 137.774 410.577C139.793 409.75 141.942 409.336 144.223 409.336C145.575 409.336 146.897 409.497 148.188 409.82C149.48 410.143 150.701 410.607 151.852 411.213C153.022 411.818 154.112 412.565 155.121 413.453C156.13 414.321 157.018 415.3 157.785 416.39L142.285 435.068ZM146.523 418.024C146.14 417.883 145.757 417.792 145.373 417.752C145.01 417.712 144.626 417.691 144.223 417.691C143.092 417.691 142.023 417.903 141.014 418.327C140.025 418.731 139.157 419.316 138.41 420.083C137.684 420.85 137.108 421.778 136.685 422.868C136.261 423.938 136.049 425.149 136.049 426.501C136.049 426.804 136.059 427.147 136.079 427.53C136.119 427.914 136.17 428.307 136.23 428.711C136.311 429.094 136.402 429.468 136.503 429.831C136.604 430.194 136.735 430.517 136.896 430.8L146.523 418.024ZM160.298 412.605C160.298 410.809 160.641 409.124 161.327 407.55C162.013 405.976 162.942 404.603 164.112 403.433C165.303 402.242 166.686 401.303 168.26 400.617C169.834 399.931 171.519 399.588 173.315 399.588H193.235V408.276H173.315C172.71 408.276 172.145 408.387 171.62 408.609C171.095 408.831 170.631 409.144 170.228 409.548C169.844 409.931 169.541 410.385 169.319 410.91C169.097 411.435 168.986 412 168.986 412.605C168.986 413.211 169.097 413.786 169.319 414.331C169.541 414.856 169.844 415.32 170.228 415.724C170.631 416.107 171.095 416.41 171.62 416.632C172.145 416.854 172.71 416.965 173.315 416.965H182.004C183.8 416.965 185.485 417.308 187.06 417.994C188.654 418.66 190.036 419.589 191.207 420.779C192.398 421.95 193.326 423.332 193.992 424.927C194.678 426.501 195.021 428.186 195.021 429.982C195.021 431.779 194.678 433.464 193.992 435.038C193.326 436.612 192.398 437.995 191.207 439.186C190.036 440.356 188.654 441.285 187.06 441.971C185.485 442.657 183.8 443 182.004 443H162.72V434.312H182.004C182.609 434.312 183.174 434.201 183.699 433.979C184.224 433.757 184.678 433.454 185.062 433.07C185.465 432.667 185.778 432.202 186 431.678C186.222 431.153 186.333 430.588 186.333 429.982C186.333 429.377 186.222 428.812 186 428.287C185.778 427.762 185.465 427.308 185.062 426.925C184.678 426.521 184.224 426.208 183.699 425.986C183.174 425.764 182.609 425.653 182.004 425.653H173.315C171.519 425.653 169.834 425.31 168.26 424.624C166.686 423.938 165.303 423.009 164.112 421.839C162.942 420.648 162.013 419.266 161.327 417.691C160.641 416.097 160.298 414.402 160.298 412.605ZM231.198 426.501C231.198 428.923 230.764 431.183 229.896 433.282C229.029 435.361 227.848 437.167 226.354 438.701C224.861 440.215 223.105 441.416 221.087 442.304C219.089 443.172 216.939 443.605 214.639 443.605C212.358 443.605 210.209 443.172 208.19 442.304C206.192 441.416 204.437 440.215 202.923 438.701C201.429 437.167 200.249 435.361 199.381 433.282C198.513 431.183 198.079 428.923 198.079 426.501C198.079 424.039 198.513 421.758 199.381 419.659C200.249 417.56 201.429 415.754 202.923 414.24C204.437 412.706 206.192 411.506 208.19 410.638C210.209 409.77 212.358 409.336 214.639 409.336C216.939 409.336 219.089 409.75 221.087 410.577C223.105 411.384 224.861 412.545 226.354 414.059C227.848 415.552 229.029 417.358 229.896 419.478C230.764 421.576 231.198 423.918 231.198 426.501ZM222.873 426.501C222.873 425.169 222.651 423.968 222.207 422.898C221.783 421.809 221.198 420.88 220.451 420.113C219.704 419.326 218.826 418.731 217.817 418.327C216.828 417.903 215.769 417.691 214.639 417.691C213.508 417.691 212.439 417.903 211.43 418.327C210.441 418.731 209.573 419.326 208.826 420.113C208.1 420.88 207.524 421.809 207.101 422.898C206.677 423.968 206.465 425.169 206.465 426.501C206.465 427.752 206.677 428.913 207.101 429.982C207.524 431.052 208.1 431.98 208.826 432.768C209.573 433.555 210.441 434.18 211.43 434.645C212.439 435.089 213.508 435.311 214.639 435.311C215.769 435.311 216.828 435.099 217.817 434.675C218.826 434.251 219.704 433.656 220.451 432.889C221.198 432.122 221.783 431.193 222.207 430.104C222.651 429.014 222.873 427.813 222.873 426.501ZM244.095 443H235.77V397.681H244.095V443ZM274.247 439.216C273.581 439.821 272.865 440.396 272.098 440.941C271.351 441.466 270.564 441.93 269.736 442.334C268.909 442.717 268.051 443.02 267.163 443.242C266.295 443.484 265.407 443.605 264.499 443.605C262.501 443.605 260.624 443.252 258.868 442.546C257.112 441.84 255.568 440.84 254.236 439.549C252.924 438.237 251.885 436.653 251.118 434.796C250.371 432.919 249.998 430.82 249.998 428.499V410.577H258.232V428.499C258.232 429.589 258.394 430.568 258.717 431.436C259.06 432.283 259.514 433 260.079 433.585C260.644 434.17 261.3 434.614 262.047 434.917C262.814 435.22 263.631 435.371 264.499 435.371C265.347 435.371 266.144 435.179 266.891 434.796C267.658 434.392 268.324 433.868 268.889 433.222C269.454 432.576 269.898 431.849 270.221 431.042C270.544 430.215 270.705 429.367 270.705 428.499V410.577H278.97V443H276.972L274.247 439.216ZM301.554 443C299.556 443 297.679 442.627 295.923 441.88C294.167 441.113 292.623 440.074 291.291 438.762C289.979 437.43 288.94 435.886 288.173 434.13C287.426 432.374 287.053 430.497 287.053 428.499V418.872H283.026V410.638H287.053V397.681H295.287V410.638H307.82V418.872H295.287V428.499C295.287 429.367 295.449 430.184 295.771 430.951C296.094 431.698 296.538 432.354 297.104 432.919C297.669 433.484 298.335 433.938 299.102 434.281C299.868 434.604 300.686 434.766 301.554 434.766H307.82V443H301.554ZM322.23 401.768C322.23 402.535 322.079 403.251 321.776 403.917C321.494 404.583 321.1 405.168 320.596 405.673C320.091 406.157 319.496 406.551 318.81 406.854C318.144 407.136 317.427 407.277 316.66 407.277C315.893 407.277 315.167 407.136 314.48 406.854C313.814 406.551 313.229 406.157 312.725 405.673C312.24 405.168 311.847 404.583 311.544 403.917C311.261 403.251 311.12 402.535 311.12 401.768C311.12 401.021 311.261 400.314 311.544 399.648C311.847 398.962 312.24 398.377 312.725 397.893C313.229 397.388 313.814 396.994 314.48 396.712C315.167 396.409 315.893 396.258 316.66 396.258C317.427 396.258 318.144 396.409 318.81 396.712C319.496 396.994 320.091 397.388 320.596 397.893C321.1 398.377 321.494 398.962 321.776 399.648C322.079 400.314 322.23 401.021 322.23 401.768ZM320.808 443H312.482V410.577H320.808V443ZM358.468 426.501C358.468 428.923 358.034 431.183 357.166 433.282C356.298 435.361 355.118 437.167 353.624 438.701C352.131 440.215 350.375 441.416 348.356 442.304C346.358 443.172 344.209 443.605 341.908 443.605C339.628 443.605 337.478 443.172 335.46 442.304C333.462 441.416 331.706 440.215 330.192 438.701C328.699 437.167 327.518 435.361 326.65 433.282C325.783 431.183 325.349 428.923 325.349 426.501C325.349 424.039 325.783 421.758 326.65 419.659C327.518 417.56 328.699 415.754 330.192 414.24C331.706 412.706 333.462 411.506 335.46 410.638C337.478 409.77 339.628 409.336 341.908 409.336C344.209 409.336 346.358 409.75 348.356 410.577C350.375 411.384 352.131 412.545 353.624 414.059C355.118 415.552 356.298 417.358 357.166 419.478C358.034 421.576 358.468 423.918 358.468 426.501ZM350.143 426.501C350.143 425.169 349.921 423.968 349.477 422.898C349.053 421.809 348.467 420.88 347.721 420.113C346.974 419.326 346.096 418.731 345.087 418.327C344.098 417.903 343.038 417.691 341.908 417.691C340.778 417.691 339.708 417.903 338.699 418.327C337.71 418.731 336.842 419.326 336.096 420.113C335.369 420.88 334.794 421.809 334.37 422.898C333.946 423.968 333.734 425.169 333.734 426.501C333.734 427.752 333.946 428.913 334.37 429.982C334.794 431.052 335.369 431.98 336.096 432.768C336.842 433.555 337.71 434.18 338.699 434.645C339.708 435.089 340.778 435.311 341.908 435.311C343.038 435.311 344.098 435.099 345.087 434.675C346.096 434.251 346.974 433.656 347.721 432.889C348.467 432.122 349.053 431.193 349.477 430.104C349.921 429.014 350.143 427.813 350.143 426.501ZM371.304 443H363.039V410.577H365.037L367.762 413.726C369.094 412.515 370.597 411.586 372.272 410.94C373.968 410.274 375.734 409.941 377.57 409.941C379.548 409.941 381.415 410.325 383.171 411.092C384.927 411.839 386.461 412.878 387.772 414.21C389.084 415.522 390.114 417.066 390.86 418.842C391.627 420.598 392.011 422.475 392.011 424.473V443H383.746V424.473C383.746 423.625 383.585 422.828 383.262 422.081C382.939 421.314 382.495 420.648 381.93 420.083C381.365 419.518 380.709 419.074 379.962 418.751C379.215 418.428 378.418 418.267 377.57 418.267C376.702 418.267 375.885 418.428 375.118 418.751C374.351 419.074 373.685 419.518 373.12 420.083C372.555 420.648 372.111 421.314 371.788 422.081C371.465 422.828 371.304 423.625 371.304 424.473V443ZM441.871 443H433.213V412C433.213 411.395 433.092 410.829 432.85 410.305C432.628 409.78 432.315 409.326 431.911 408.942C431.528 408.539 431.074 408.226 430.549 408.004C430.024 407.782 429.459 407.671 428.854 407.671C428.248 407.671 427.683 407.782 427.158 408.004C426.633 408.226 426.169 408.539 425.766 408.942C425.382 409.326 425.079 409.78 424.857 410.305C424.635 410.829 424.524 411.395 424.524 412V443H415.836V412C415.836 411.395 415.725 410.829 415.503 410.305C415.281 409.78 414.968 409.326 414.564 408.942C414.181 408.539 413.727 408.226 413.202 408.004C412.677 407.782 412.112 407.671 411.507 407.671C410.901 407.671 410.336 407.782 409.812 408.004C409.287 408.226 408.823 408.539 408.419 408.942C408.035 409.326 407.733 409.78 407.511 410.305C407.289 410.829 407.178 411.395 407.178 412V443H398.489V412C398.489 410.204 398.822 408.519 399.488 406.944C400.174 405.35 401.103 403.967 402.273 402.797C403.464 401.606 404.847 400.678 406.421 400.012C408.015 399.326 409.711 398.982 411.507 398.982C413.121 398.982 414.675 399.275 416.169 399.86C417.662 400.425 419.005 401.253 420.195 402.343C421.386 401.253 422.718 400.425 424.191 399.86C425.685 399.275 427.239 398.982 428.854 398.982C430.65 398.982 432.335 399.326 433.909 400.012C435.504 400.678 436.886 401.606 438.057 402.797C439.247 403.967 440.176 405.35 440.842 406.944C441.528 408.519 441.871 410.204 441.871 412V443ZM479.804 443H477.806L474.597 438.55C473.81 439.256 472.972 439.922 472.084 440.548C471.216 441.153 470.298 441.688 469.329 442.152C468.36 442.596 467.361 442.95 466.332 443.212C465.323 443.474 464.294 443.605 463.244 443.605C460.964 443.605 458.814 443.222 456.796 442.455C454.798 441.688 453.042 440.578 451.528 439.125C450.035 437.652 448.854 435.855 447.986 433.736C447.118 431.617 446.685 429.205 446.685 426.501C446.685 423.978 447.118 421.667 447.986 419.568C448.854 417.449 450.035 415.633 451.528 414.119C453.042 412.605 454.798 411.435 456.796 410.607C458.814 409.76 460.964 409.336 463.244 409.336C464.294 409.336 465.333 409.467 466.362 409.729C467.392 409.992 468.391 410.355 469.359 410.819C470.328 411.284 471.246 411.828 472.114 412.454C473.002 413.08 473.83 413.756 474.597 414.482L477.806 410.638H479.804V443ZM471.479 426.501C471.479 425.371 471.257 424.281 470.812 423.231C470.389 422.162 469.803 421.223 469.057 420.416C468.31 419.589 467.432 418.933 466.423 418.448C465.434 417.944 464.374 417.691 463.244 417.691C462.114 417.691 461.044 417.883 460.035 418.267C459.046 418.65 458.178 419.215 457.432 419.962C456.705 420.709 456.13 421.637 455.706 422.747C455.282 423.837 455.07 425.088 455.07 426.501C455.07 427.914 455.282 429.175 455.706 430.285C456.13 431.375 456.705 432.293 457.432 433.04C458.178 433.787 459.046 434.352 460.035 434.735C461.044 435.119 462.114 435.311 463.244 435.311C464.374 435.311 465.434 435.068 466.423 434.584C467.432 434.079 468.31 433.424 469.057 432.616C469.803 431.789 470.389 430.85 470.812 429.801C471.257 428.731 471.479 427.631 471.479 426.501ZM494.456 443H486.131V397.681H494.456V426.259L506.777 410.638H516.283L505.536 424.14L516.283 443H506.777L500.208 431.224L494.456 438.853V443ZM531.42 435.068C531.743 435.169 532.066 435.24 532.389 435.28C532.712 435.3 533.035 435.311 533.357 435.311C534.165 435.311 534.942 435.2 535.688 434.978C536.435 434.756 537.132 434.443 537.777 434.039C538.443 433.615 539.029 433.111 539.533 432.525C540.058 431.92 540.482 431.254 540.805 430.527L546.859 436.612C546.092 437.702 545.204 438.681 544.195 439.549C543.206 440.417 542.127 441.153 540.956 441.759C539.806 442.364 538.585 442.818 537.293 443.121C536.021 443.444 534.71 443.605 533.357 443.605C531.077 443.605 528.927 443.182 526.909 442.334C524.911 441.486 523.155 440.306 521.642 438.792C520.148 437.278 518.967 435.482 518.1 433.403C517.232 431.304 516.798 429.004 516.798 426.501C516.798 423.938 517.232 421.597 518.1 419.478C518.967 417.358 520.148 415.552 521.642 414.059C523.155 412.565 524.911 411.405 526.909 410.577C528.927 409.75 531.077 409.336 533.357 409.336C534.71 409.336 536.032 409.497 537.323 409.82C538.615 410.143 539.836 410.607 540.986 411.213C542.157 411.818 543.247 412.565 544.256 413.453C545.265 414.321 546.153 415.3 546.92 416.39L531.42 435.068ZM535.658 418.024C535.275 417.883 534.891 417.792 534.508 417.752C534.145 417.712 533.761 417.691 533.357 417.691C532.227 417.691 531.158 417.903 530.148 418.327C529.16 418.731 528.292 419.316 527.545 420.083C526.818 420.85 526.243 421.778 525.819 422.868C525.396 423.938 525.184 425.149 525.184 426.501C525.184 426.804 525.194 427.147 525.214 427.53C525.254 427.914 525.305 428.307 525.365 428.711C525.446 429.094 525.537 429.468 525.638 429.831C525.739 430.194 525.87 430.517 526.031 430.8L535.658 418.024ZM559.362 443H551.098V410.577H553.096L555.82 414.422C557.152 413.211 558.666 412.283 560.361 411.637C562.057 410.971 563.812 410.638 565.629 410.638H572.925V418.872H565.629C564.761 418.872 563.944 419.034 563.177 419.356C562.41 419.679 561.744 420.123 561.179 420.688C560.614 421.254 560.17 421.92 559.847 422.687C559.524 423.453 559.362 424.271 559.362 425.139V443Z" fill="white"/>
</svg>
