<svg width="1279" height="525" viewBox="0 0 1279 525" fill="none" xmlns="http://www.w3.org/2000/svg">
<path d="M145.807 263.896L126.807 232.616L289.995 133.494L308.995 164.775L145.807 263.896Z" fill="#E2E7EB"/>
<path d="M315.211 524.655L296.085 493.452L458.872 393.674L477.998 424.878L315.211 524.655Z" fill="#E2E7EB"/>
<path d="M287.546 158.097L305.058 125.96L472.714 217.32L455.202 249.457L287.546 158.097Z" fill="#E2E7EB"/>
<path d="M132.761 428.068L150.273 395.931L317.929 487.292L300.417 519.429L132.761 428.068Z" fill="#E2E7EB"/>
<path d="M478.491 411.864L441.896 412.329L439.472 221.412L476.068 220.947L478.491 411.864Z" fill="#E2E7EB"/>
<path d="M173.289 432.329L136.694 432.881L133.815 241.97L170.41 241.418L173.289 432.329Z" fill="#E2E7EB"/>
<path d="M589.389 247.344C587.305 249.115 584.982 250.479 582.42 251.438C579.857 252.375 577.191 252.844 574.42 252.844C572.295 252.844 570.243 252.562 568.264 252C566.305 251.458 564.472 250.688 562.764 249.688C561.055 248.667 559.493 247.458 558.076 246.062C556.66 244.646 555.451 243.083 554.451 241.375C553.451 239.646 552.67 237.792 552.107 235.812C551.566 233.833 551.295 231.781 551.295 229.656C551.295 227.531 551.566 225.49 552.107 223.531C552.67 221.573 553.451 219.74 554.451 218.031C555.451 216.302 556.66 214.74 558.076 213.344C559.493 211.927 561.055 210.719 562.764 209.719C564.472 208.719 566.305 207.948 568.264 207.406C570.243 206.844 572.295 206.562 574.42 206.562C577.191 206.562 579.857 207.042 582.42 208C584.982 208.938 587.305 210.292 589.389 212.062L584.701 219.875C583.347 218.5 581.785 217.427 580.014 216.656C578.243 215.865 576.378 215.469 574.42 215.469C572.462 215.469 570.618 215.844 568.889 216.594C567.18 217.344 565.68 218.365 564.389 219.656C563.097 220.927 562.076 222.427 561.326 224.156C560.576 225.865 560.201 227.698 560.201 229.656C560.201 231.635 560.576 233.49 561.326 235.219C562.076 236.948 563.097 238.458 564.389 239.75C565.68 241.042 567.18 242.062 568.889 242.812C570.618 243.562 572.462 243.938 574.42 243.938C575.545 243.938 576.639 243.802 577.701 243.531C578.764 243.26 579.774 242.885 580.732 242.406V229.656H589.389V247.344ZM627.795 251.875H625.732L622.42 247.281C621.607 248.01 620.743 248.698 619.826 249.344C618.93 249.969 617.982 250.521 616.982 251C615.982 251.458 614.951 251.823 613.889 252.094C612.847 252.365 611.785 252.5 610.701 252.5C608.347 252.5 606.128 252.104 604.045 251.312C601.982 250.521 600.17 249.375 598.607 247.875C597.066 246.354 595.847 244.5 594.951 242.312C594.055 240.125 593.607 237.635 593.607 234.844C593.607 232.24 594.055 229.854 594.951 227.688C595.847 225.5 597.066 223.625 598.607 222.062C600.17 220.5 601.982 219.292 604.045 218.438C606.128 217.562 608.347 217.125 610.701 217.125C611.785 217.125 612.857 217.26 613.92 217.531C614.982 217.802 616.014 218.177 617.014 218.656C618.014 219.135 618.962 219.698 619.857 220.344C620.774 220.99 621.628 221.688 622.42 222.438L625.732 218.469H627.795V251.875ZM619.201 234.844C619.201 233.677 618.972 232.552 618.514 231.469C618.076 230.365 617.472 229.396 616.701 228.562C615.93 227.708 615.024 227.031 613.982 226.531C612.962 226.01 611.868 225.75 610.701 225.75C609.535 225.75 608.43 225.948 607.389 226.344C606.368 226.74 605.472 227.323 604.701 228.094C603.951 228.865 603.357 229.823 602.92 230.969C602.482 232.094 602.264 233.385 602.264 234.844C602.264 236.302 602.482 237.604 602.92 238.75C603.357 239.875 603.951 240.823 604.701 241.594C605.472 242.365 606.368 242.948 607.389 243.344C608.43 243.74 609.535 243.938 610.701 243.938C611.868 243.938 612.962 243.688 613.982 243.188C615.024 242.667 615.93 241.99 616.701 241.156C617.472 240.302 618.076 239.333 618.514 238.25C618.972 237.146 619.201 236.01 619.201 234.844ZM676.889 251.875H668.389V230.625C668.389 230.042 668.274 229.49 668.045 228.969C667.837 228.448 667.535 227.99 667.139 227.594C666.743 227.198 666.285 226.896 665.764 226.688C665.243 226.458 664.691 226.344 664.107 226.344C663.524 226.344 662.972 226.458 662.451 226.688C661.951 226.896 661.503 227.198 661.107 227.594C660.732 227.99 660.43 228.448 660.201 228.969C659.993 229.49 659.889 230.042 659.889 230.625V251.875H651.357V230.625C651.357 230.042 651.243 229.49 651.014 228.969C650.805 228.448 650.503 227.99 650.107 227.594C649.712 227.198 649.253 226.896 648.732 226.688C648.212 226.458 647.66 226.344 647.076 226.344C646.493 226.344 645.941 226.458 645.42 226.688C644.92 226.896 644.472 227.198 644.076 227.594C643.701 227.99 643.399 228.448 643.17 228.969C642.962 229.49 642.857 230.042 642.857 230.625V251.875H634.326V218.406H636.389L638.701 220.969C639.889 219.969 641.191 219.198 642.607 218.656C644.045 218.094 645.535 217.812 647.076 217.812C648.639 217.812 650.16 218.104 651.639 218.688C653.139 219.271 654.451 220.281 655.576 221.719C656.097 221.01 656.691 220.406 657.357 219.906C658.024 219.406 658.722 219 659.451 218.688C660.201 218.375 660.972 218.156 661.764 218.031C662.555 217.885 663.337 217.812 664.107 217.812C665.878 217.812 667.535 218.146 669.076 218.812C670.639 219.479 671.993 220.396 673.139 221.562C674.305 222.708 675.222 224.062 675.889 225.625C676.555 227.188 676.889 228.854 676.889 230.625V251.875ZM696.451 243.688C696.785 243.792 697.118 243.865 697.451 243.906C697.785 243.927 698.118 243.938 698.451 243.938C699.285 243.938 700.087 243.823 700.857 243.594C701.628 243.365 702.347 243.042 703.014 242.625C703.701 242.188 704.305 241.667 704.826 241.062C705.368 240.438 705.805 239.75 706.139 239L712.389 245.281C711.597 246.406 710.68 247.417 709.639 248.312C708.618 249.208 707.503 249.969 706.295 250.594C705.107 251.219 703.847 251.688 702.514 252C701.201 252.333 699.847 252.5 698.451 252.5C696.097 252.5 693.878 252.062 691.795 251.188C689.732 250.312 687.92 249.094 686.357 247.531C684.816 245.969 683.597 244.115 682.701 241.969C681.805 239.802 681.357 237.427 681.357 234.844C681.357 232.198 681.805 229.781 682.701 227.594C683.597 225.406 684.816 223.542 686.357 222C687.92 220.458 689.732 219.26 691.795 218.406C693.878 217.552 696.097 217.125 698.451 217.125C699.847 217.125 701.212 217.292 702.545 217.625C703.878 217.958 705.139 218.438 706.326 219.062C707.535 219.688 708.66 220.458 709.701 221.375C710.743 222.271 711.66 223.281 712.451 224.406L696.451 243.688ZM700.826 226.094C700.43 225.948 700.035 225.854 699.639 225.812C699.264 225.771 698.868 225.75 698.451 225.75C697.285 225.75 696.18 225.969 695.139 226.406C694.118 226.823 693.222 227.427 692.451 228.219C691.701 229.01 691.107 229.969 690.67 231.094C690.232 232.198 690.014 233.448 690.014 234.844C690.014 235.156 690.024 235.51 690.045 235.906C690.087 236.302 690.139 236.708 690.201 237.125C690.285 237.521 690.378 237.906 690.482 238.281C690.587 238.656 690.722 238.99 690.889 239.281L700.826 226.094ZM1005.7 251.875H996.764V219.875C996.764 219.25 996.639 218.667 996.389 218.125C996.16 217.583 995.837 217.115 995.42 216.719C995.024 216.302 994.555 215.979 994.014 215.75C993.472 215.521 992.889 215.406 992.264 215.406C991.639 215.406 991.055 215.521 990.514 215.75C989.972 215.979 989.493 216.302 989.076 216.719C988.68 217.115 988.368 217.583 988.139 218.125C987.91 218.667 987.795 219.25 987.795 219.875V251.875H978.826V219.875C978.826 219.25 978.712 218.667 978.482 218.125C978.253 217.583 977.93 217.115 977.514 216.719C977.118 216.302 976.649 215.979 976.107 215.75C975.566 215.521 974.982 215.406 974.357 215.406C973.732 215.406 973.149 215.521 972.607 215.75C972.066 215.979 971.587 216.302 971.17 216.719C970.774 217.115 970.462 217.583 970.232 218.125C970.003 218.667 969.889 219.25 969.889 219.875V251.875H960.92V219.875C960.92 218.021 961.264 216.281 961.951 214.656C962.66 213.01 963.618 211.583 964.826 210.375C966.055 209.146 967.482 208.188 969.107 207.5C970.753 206.792 972.503 206.438 974.357 206.438C976.024 206.438 977.628 206.74 979.17 207.344C980.712 207.927 982.097 208.781 983.326 209.906C984.555 208.781 985.93 207.927 987.451 207.344C988.993 206.74 990.597 206.438 992.264 206.438C994.118 206.438 995.857 206.792 997.482 207.5C999.128 208.188 1000.56 209.146 1001.76 210.375C1002.99 211.583 1003.95 213.01 1004.64 214.656C1005.35 216.281 1005.7 218.021 1005.7 219.875V251.875ZM1044.86 251.875H1042.79L1039.48 247.281C1038.67 248.01 1037.81 248.698 1036.89 249.344C1035.99 249.969 1035.04 250.521 1034.04 251C1033.04 251.458 1032.01 251.823 1030.95 252.094C1029.91 252.365 1028.85 252.5 1027.76 252.5C1025.41 252.5 1023.19 252.104 1021.11 251.312C1019.04 250.521 1017.23 249.375 1015.67 247.875C1014.13 246.354 1012.91 244.5 1012.01 242.312C1011.12 240.125 1010.67 237.635 1010.67 234.844C1010.67 232.24 1011.12 229.854 1012.01 227.688C1012.91 225.5 1014.13 223.625 1015.67 222.062C1017.23 220.5 1019.04 219.292 1021.11 218.438C1023.19 217.562 1025.41 217.125 1027.76 217.125C1028.85 217.125 1029.92 217.26 1030.98 217.531C1032.04 217.802 1033.08 218.177 1034.08 218.656C1035.08 219.135 1036.02 219.698 1036.92 220.344C1037.84 220.99 1038.69 221.688 1039.48 222.438L1042.79 218.469H1044.86V251.875ZM1036.26 234.844C1036.26 233.677 1036.03 232.552 1035.58 231.469C1035.14 230.365 1034.53 229.396 1033.76 228.562C1032.99 227.708 1032.09 227.031 1031.04 226.531C1030.02 226.01 1028.93 225.75 1027.76 225.75C1026.6 225.75 1025.49 225.948 1024.45 226.344C1023.43 226.74 1022.53 227.323 1021.76 228.094C1021.01 228.865 1020.42 229.823 1019.98 230.969C1019.54 232.094 1019.33 233.385 1019.33 234.844C1019.33 236.302 1019.54 237.604 1019.98 238.75C1020.42 239.875 1021.01 240.823 1021.76 241.594C1022.53 242.365 1023.43 242.948 1024.45 243.344C1025.49 243.74 1026.6 243.938 1027.76 243.938C1028.93 243.938 1030.02 243.688 1031.04 243.188C1032.09 242.667 1032.99 241.99 1033.76 241.156C1034.53 240.302 1035.14 239.333 1035.58 238.25C1036.03 237.146 1036.26 236.01 1036.26 234.844ZM1059.98 251.875H1051.39V205.094H1059.98V234.594L1072.7 218.469H1082.51L1071.42 232.406L1082.51 251.875H1072.7L1065.92 239.719L1059.98 247.594V251.875ZM1098.14 243.688C1098.47 243.792 1098.81 243.865 1099.14 243.906C1099.47 243.927 1099.81 243.938 1100.14 243.938C1100.97 243.938 1101.77 243.823 1102.54 243.594C1103.32 243.365 1104.03 243.042 1104.7 242.625C1105.39 242.188 1105.99 241.667 1106.51 241.062C1107.06 240.438 1107.49 239.75 1107.83 239L1114.08 245.281C1113.28 246.406 1112.37 247.417 1111.33 248.312C1110.31 249.208 1109.19 249.969 1107.98 250.594C1106.79 251.219 1105.53 251.688 1104.2 252C1102.89 252.333 1101.53 252.5 1100.14 252.5C1097.78 252.5 1095.57 252.062 1093.48 251.188C1091.42 250.312 1089.61 249.094 1088.04 247.531C1086.5 245.969 1085.28 244.115 1084.39 241.969C1083.49 239.802 1083.04 237.427 1083.04 234.844C1083.04 232.198 1083.49 229.781 1084.39 227.594C1085.28 225.406 1086.5 223.542 1088.04 222C1089.61 220.458 1091.42 219.26 1093.48 218.406C1095.57 217.552 1097.78 217.125 1100.14 217.125C1101.53 217.125 1102.9 217.292 1104.23 217.625C1105.57 217.958 1106.83 218.438 1108.01 219.062C1109.22 219.688 1110.35 220.458 1111.39 221.375C1112.43 222.271 1113.35 223.281 1114.14 224.406L1098.14 243.688ZM1102.51 226.094C1102.12 225.948 1101.72 225.854 1101.33 225.812C1100.95 225.771 1100.56 225.75 1100.14 225.75C1098.97 225.75 1097.87 225.969 1096.83 226.406C1095.81 226.823 1094.91 227.427 1094.14 228.219C1093.39 229.01 1092.79 229.969 1092.36 231.094C1091.92 232.198 1091.7 233.448 1091.7 234.844C1091.7 235.156 1091.71 235.51 1091.73 235.906C1091.77 236.302 1091.83 236.708 1091.89 237.125C1091.97 237.521 1092.07 237.906 1092.17 238.281C1092.27 238.656 1092.41 238.99 1092.58 239.281L1102.51 226.094ZM1126.98 251.875H1118.45V218.406H1120.51L1123.33 222.375C1124.7 221.125 1126.26 220.167 1128.01 219.5C1129.76 218.812 1131.58 218.469 1133.45 218.469H1140.98V226.969H1133.45C1132.56 226.969 1131.71 227.135 1130.92 227.469C1130.13 227.802 1129.44 228.26 1128.86 228.844C1128.27 229.427 1127.82 230.115 1127.48 230.906C1127.15 231.698 1126.98 232.542 1126.98 233.438V251.875Z" fill="#585859"/>
<path d="M715.045 220.5C715.045 218.646 715.399 216.906 716.107 215.281C716.816 213.656 717.774 212.24 718.982 211.031C720.212 209.802 721.639 208.833 723.264 208.125C724.889 207.417 726.628 207.062 728.482 207.062H749.045V216.031H728.482C727.857 216.031 727.274 216.146 726.732 216.375C726.191 216.604 725.712 216.927 725.295 217.344C724.899 217.74 724.587 218.208 724.357 218.75C724.128 219.292 724.014 219.875 724.014 220.5C724.014 221.125 724.128 221.719 724.357 222.281C724.587 222.823 724.899 223.302 725.295 223.719C725.712 224.115 726.191 224.427 726.732 224.656C727.274 224.885 727.857 225 728.482 225H737.451C739.305 225 741.045 225.354 742.67 226.062C744.316 226.75 745.743 227.708 746.951 228.938C748.18 230.146 749.139 231.573 749.826 233.219C750.535 234.844 750.889 236.583 750.889 238.438C750.889 240.292 750.535 242.031 749.826 243.656C749.139 245.281 748.18 246.708 746.951 247.938C745.743 249.146 744.316 250.104 742.67 250.812C741.045 251.521 739.305 251.875 737.451 251.875H717.545V242.906H737.451C738.076 242.906 738.66 242.792 739.201 242.562C739.743 242.333 740.212 242.021 740.607 241.625C741.024 241.208 741.347 240.729 741.576 240.188C741.805 239.646 741.92 239.062 741.92 238.438C741.92 237.812 741.805 237.229 741.576 236.688C741.347 236.146 741.024 235.677 740.607 235.281C740.212 234.865 739.743 234.542 739.201 234.312C738.66 234.083 738.076 233.969 737.451 233.969H728.482C726.628 233.969 724.889 233.615 723.264 232.906C721.639 232.198 720.212 231.24 718.982 230.031C717.774 228.802 716.816 227.375 716.107 225.75C715.399 224.104 715.045 222.354 715.045 220.5ZM788.232 234.844C788.232 237.344 787.785 239.677 786.889 241.844C785.993 243.99 784.774 245.854 783.232 247.438C781.691 249 779.878 250.24 777.795 251.156C775.732 252.052 773.514 252.5 771.139 252.5C768.785 252.5 766.566 252.052 764.482 251.156C762.42 250.24 760.607 249 759.045 247.438C757.503 245.854 756.285 243.99 755.389 241.844C754.493 239.677 754.045 237.344 754.045 234.844C754.045 232.302 754.493 229.948 755.389 227.781C756.285 225.615 757.503 223.75 759.045 222.188C760.607 220.604 762.42 219.365 764.482 218.469C766.566 217.573 768.785 217.125 771.139 217.125C773.514 217.125 775.732 217.552 777.795 218.406C779.878 219.24 781.691 220.438 783.232 222C784.774 223.542 785.993 225.406 786.889 227.594C787.785 229.76 788.232 232.177 788.232 234.844ZM779.639 234.844C779.639 233.469 779.41 232.229 778.951 231.125C778.514 230 777.91 229.042 777.139 228.25C776.368 227.438 775.462 226.823 774.42 226.406C773.399 225.969 772.305 225.75 771.139 225.75C769.972 225.75 768.868 225.969 767.826 226.406C766.805 226.823 765.91 227.438 765.139 228.25C764.389 229.042 763.795 230 763.357 231.125C762.92 232.229 762.701 233.469 762.701 234.844C762.701 236.135 762.92 237.333 763.357 238.438C763.795 239.542 764.389 240.5 765.139 241.312C765.91 242.125 766.805 242.771 767.826 243.25C768.868 243.708 769.972 243.938 771.139 243.938C772.305 243.938 773.399 243.719 774.42 243.281C775.462 242.844 776.368 242.229 777.139 241.438C777.91 240.646 778.514 239.688 778.951 238.562C779.41 237.438 779.639 236.198 779.639 234.844ZM801.545 251.875H792.951V205.094H801.545V251.875ZM832.67 247.969C831.982 248.594 831.243 249.188 830.451 249.75C829.68 250.292 828.868 250.771 828.014 251.188C827.16 251.583 826.274 251.896 825.357 252.125C824.462 252.375 823.545 252.5 822.607 252.5C820.545 252.5 818.607 252.135 816.795 251.406C814.982 250.677 813.389 249.646 812.014 248.312C810.66 246.958 809.587 245.323 808.795 243.406C808.024 241.469 807.639 239.302 807.639 236.906V218.406H816.139V236.906C816.139 238.031 816.305 239.042 816.639 239.938C816.993 240.812 817.462 241.552 818.045 242.156C818.628 242.76 819.305 243.219 820.076 243.531C820.868 243.844 821.712 244 822.607 244C823.482 244 824.305 243.802 825.076 243.406C825.868 242.99 826.555 242.448 827.139 241.781C827.722 241.115 828.18 240.365 828.514 239.531C828.847 238.677 829.014 237.802 829.014 236.906V218.406H837.545V251.875H835.482L832.67 247.969ZM860.857 251.875C858.795 251.875 856.857 251.49 855.045 250.719C853.232 249.927 851.639 248.854 850.264 247.5C848.91 246.125 847.837 244.531 847.045 242.719C846.274 240.906 845.889 238.969 845.889 236.906V226.969H841.732V218.469H845.889V205.094H854.389V218.469H867.326V226.969H854.389V236.906C854.389 237.802 854.555 238.646 854.889 239.438C855.222 240.208 855.68 240.885 856.264 241.469C856.847 242.052 857.535 242.521 858.326 242.875C859.118 243.208 859.962 243.375 860.857 243.375H867.326V251.875H860.857ZM882.201 209.312C882.201 210.104 882.045 210.844 881.732 211.531C881.441 212.219 881.035 212.823 880.514 213.344C879.993 213.844 879.378 214.25 878.67 214.562C877.982 214.854 877.243 215 876.451 215C875.66 215 874.91 214.854 874.201 214.562C873.514 214.25 872.91 213.844 872.389 213.344C871.889 212.823 871.482 212.219 871.17 211.531C870.878 210.844 870.732 210.104 870.732 209.312C870.732 208.542 870.878 207.812 871.17 207.125C871.482 206.417 871.889 205.812 872.389 205.312C872.91 204.792 873.514 204.385 874.201 204.094C874.91 203.781 875.66 203.625 876.451 203.625C877.243 203.625 877.982 203.781 878.67 204.094C879.378 204.385 879.993 204.792 880.514 205.312C881.035 205.812 881.441 206.417 881.732 207.125C882.045 207.812 882.201 208.542 882.201 209.312ZM880.732 251.875H872.139V218.406H880.732V251.875ZM919.607 234.844C919.607 237.344 919.16 239.677 918.264 241.844C917.368 243.99 916.149 245.854 914.607 247.438C913.066 249 911.253 250.24 909.17 251.156C907.107 252.052 904.889 252.5 902.514 252.5C900.16 252.5 897.941 252.052 895.857 251.156C893.795 250.24 891.982 249 890.42 247.438C888.878 245.854 887.66 243.99 886.764 241.844C885.868 239.677 885.42 237.344 885.42 234.844C885.42 232.302 885.868 229.948 886.764 227.781C887.66 225.615 888.878 223.75 890.42 222.188C891.982 220.604 893.795 219.365 895.857 218.469C897.941 217.573 900.16 217.125 902.514 217.125C904.889 217.125 907.107 217.552 909.17 218.406C911.253 219.24 913.066 220.438 914.607 222C916.149 223.542 917.368 225.406 918.264 227.594C919.16 229.76 919.607 232.177 919.607 234.844ZM911.014 234.844C911.014 233.469 910.785 232.229 910.326 231.125C909.889 230 909.285 229.042 908.514 228.25C907.743 227.438 906.837 226.823 905.795 226.406C904.774 225.969 903.68 225.75 902.514 225.75C901.347 225.75 900.243 225.969 899.201 226.406C898.18 226.823 897.285 227.438 896.514 228.25C895.764 229.042 895.17 230 894.732 231.125C894.295 232.229 894.076 233.469 894.076 234.844C894.076 236.135 894.295 237.333 894.732 238.438C895.17 239.542 895.764 240.5 896.514 241.312C897.285 242.125 898.18 242.771 899.201 243.25C900.243 243.708 901.347 243.938 902.514 243.938C903.68 243.938 904.774 243.719 905.795 243.281C906.837 242.844 907.743 242.229 908.514 241.438C909.285 240.646 909.889 239.688 910.326 238.562C910.785 237.438 911.014 236.198 911.014 234.844ZM932.857 251.875H924.326V218.406H926.389L929.201 221.656C930.576 220.406 932.128 219.448 933.857 218.781C935.607 218.094 937.43 217.75 939.326 217.75C941.368 217.75 943.295 218.146 945.107 218.938C946.92 219.708 948.503 220.781 949.857 222.156C951.212 223.51 952.274 225.104 953.045 226.938C953.837 228.75 954.232 230.688 954.232 232.75V251.875H945.701V232.75C945.701 231.875 945.535 231.052 945.201 230.281C944.868 229.49 944.41 228.802 943.826 228.219C943.243 227.635 942.566 227.177 941.795 226.844C941.024 226.51 940.201 226.344 939.326 226.344C938.43 226.344 937.587 226.51 936.795 226.844C936.003 227.177 935.316 227.635 934.732 228.219C934.149 228.802 933.691 229.49 933.357 230.281C933.024 231.052 932.857 231.875 932.857 232.75V251.875Z" fill="#477494"/>
<path d="M140.833 141.856L479.937 337.691" stroke="#585859" stroke-width="10"/>
<path d="M145.833 145.004L310.385 50.2242L474.937 145.004V334.543L310.385 429.323L145.833 334.543V145.004Z" fill="#E2E7EB" stroke="#585859" stroke-width="10"/>
<path d="M310.385 44.4541V435.093" stroke="#585859" stroke-width="10"/>
<path d="M140.833 337.177C273.755 261.755 348.463 219.79 479.937 141.857" stroke="#585859" stroke-width="10"/>
<path d="M3 213.103C136.499 138.71 211.53 97.3225 343.601 20.4064" stroke="#E2E7EB" stroke-width="10"/>
<path d="M210.922 497.049C343.794 421.541 418.474 379.527 549.898 301.507" stroke="#E2E7EB" stroke-width="10"/>
<path d="M150.464 147.439L469.429 332.156" stroke="#585859" stroke-width="10"/>
<path d="M28.4858 277.886L347.45 462.603" stroke="#E2E7EB" stroke-width="10"/>
<path d="M253.181 5.78223L572.64 189.642" stroke="#E2E7EB" stroke-width="10"/>
<path d="M484.934 368.718L484.088 0.128616" stroke="#E2E7EB" stroke-width="10"/>
<path d="M136.582 422.32L135.736 53.7312" stroke="#E2E7EB" stroke-width="10"/>
</svg>
