<svg width="575" height="434" viewBox="0 0 575 434" fill="none" xmlns="http://www.w3.org/2000/svg">
<path d="M245.639 102.99L259.895 76.8287L396.378 151.202L382.121 177.363L245.639 102.99Z" fill="#365870"/>
<path d="M126.205 89.7695L402.258 249.192" stroke="white" stroke-width="10"/>
<path d="M131.205 92.8701L264.232 16.2486L397.258 92.8701V246.093L264.232 322.714L131.205 246.093V92.8701Z" fill="#365870" stroke="white" stroke-width="10"/>
<path d="M264.232 10.4785V328.484" stroke="white" stroke-width="10"/>
<path d="M126.205 248.773C234.412 187.376 295.229 153.213 402.258 89.7705" stroke="white" stroke-width="10"/>
<path d="M90.036 103.787C159.514 65.9441 198.617 44.9887 266.924 5.09609" stroke="#365870" stroke-width="10"/>
<path d="M261.278 332.832C320.956 300.009 354.567 281.867 413.057 247.005" stroke="#365870" stroke-width="10"/>
<path d="M134.045 94.3145L393.703 244.686" stroke="white" stroke-width="10"/>
<path d="M124.429 253.408L268.546 335.622" stroke="#365870" stroke-width="10"/>
<path d="M264.275 6.32422L408.898 88.3185" stroke="#365870" stroke-width="10"/>
<path d="M406.325 274.453L404.99 86.9178" stroke="#365870" stroke-width="10"/>
<path d="M122.744 318.086L121.698 80.2957" stroke="#365870" stroke-width="10"/>
<path d="M38.5684 413.007C36.5501 414.722 34.2998 416.044 31.8174 416.973C29.335 417.881 26.7516 418.335 24.0674 418.335C22.0088 418.335 20.0208 418.062 18.1035 417.518C16.2064 416.993 14.4303 416.246 12.7754 415.277C11.1204 414.288 9.60677 413.118 8.23438 411.766C6.86198 410.393 5.69141 408.88 4.72266 407.225C3.75391 405.549 2.99707 403.753 2.45215 401.836C1.92741 399.919 1.66504 397.931 1.66504 395.872C1.66504 393.813 1.92741 391.836 2.45215 389.938C2.99707 388.041 3.75391 386.265 4.72266 384.61C5.69141 382.935 6.86198 381.422 8.23438 380.069C9.60677 378.697 11.1204 377.526 12.7754 376.558C14.4303 375.589 16.2064 374.842 18.1035 374.317C20.0208 373.772 22.0088 373.5 24.0674 373.5C26.7516 373.5 29.335 373.964 31.8174 374.893C34.2998 375.801 36.5501 377.113 38.5684 378.828L34.0273 386.396C32.7155 385.064 31.2018 384.025 29.4863 383.278C27.7708 382.511 25.9645 382.128 24.0674 382.128C22.1702 382.128 20.3841 382.491 18.709 383.218C17.054 383.944 15.6009 384.933 14.3496 386.185C13.0983 387.416 12.1094 388.869 11.3828 390.544C10.6562 392.199 10.293 393.975 10.293 395.872C10.293 397.789 10.6562 399.586 11.3828 401.261C12.1094 402.936 13.0983 404.399 14.3496 405.65C15.6009 406.902 17.054 407.891 18.709 408.617C20.3841 409.344 22.1702 409.707 24.0674 409.707C25.1572 409.707 26.2168 409.576 27.2461 409.313C28.2754 409.051 29.2542 408.688 30.1826 408.224V395.872H38.5684V413.007ZM75.7744 417.396H73.7764L70.5674 412.946C69.7803 413.653 68.9427 414.319 68.0547 414.944C67.1868 415.55 66.2686 416.085 65.2998 416.549C64.3311 416.993 63.332 417.346 62.3027 417.608C61.2936 417.871 60.2643 418.002 59.2148 418.002C56.9342 418.002 54.7848 417.618 52.7666 416.852C50.7686 416.085 49.0127 414.975 47.499 413.521C46.0055 412.048 44.8249 410.252 43.957 408.133C43.0892 406.014 42.6553 403.602 42.6553 400.897C42.6553 398.375 43.0892 396.064 43.957 393.965C44.8249 391.846 46.0055 390.029 47.499 388.516C49.0127 387.002 50.7686 385.831 52.7666 385.004C54.7848 384.156 56.9342 383.732 59.2148 383.732C60.2643 383.732 61.3037 383.864 62.333 384.126C63.3623 384.388 64.3613 384.752 65.3301 385.216C66.2988 385.68 67.2171 386.225 68.085 386.851C68.973 387.476 69.8005 388.152 70.5674 388.879L73.7764 385.034H75.7744V417.396ZM67.4492 400.897C67.4492 399.767 67.2272 398.677 66.7832 397.628C66.3594 396.558 65.7741 395.62 65.0273 394.812C64.2806 393.985 63.4027 393.329 62.3936 392.845C61.4046 392.34 60.3451 392.088 59.2148 392.088C58.0846 392.088 57.015 392.28 56.0059 392.663C55.0169 393.047 54.1491 393.612 53.4023 394.358C52.6758 395.105 52.1006 396.034 51.6768 397.144C51.2529 398.233 51.041 399.485 51.041 400.897C51.041 402.31 51.2529 403.572 51.6768 404.682C52.1006 405.771 52.6758 406.69 53.4023 407.437C54.1491 408.183 55.0169 408.748 56.0059 409.132C57.015 409.515 58.0846 409.707 59.2148 409.707C60.3451 409.707 61.4046 409.465 62.3936 408.98C63.4027 408.476 64.2806 407.82 65.0273 407.013C65.7741 406.185 66.3594 405.247 66.7832 404.197C67.2272 403.128 67.4492 402.028 67.4492 400.897ZM123.334 417.396H115.1V396.811C115.1 396.245 114.989 395.711 114.767 395.206C114.565 394.701 114.272 394.257 113.889 393.874C113.505 393.491 113.061 393.198 112.557 392.996C112.052 392.774 111.517 392.663 110.952 392.663C110.387 392.663 109.852 392.774 109.348 392.996C108.863 393.198 108.429 393.491 108.046 393.874C107.683 394.257 107.39 394.701 107.168 395.206C106.966 395.711 106.865 396.245 106.865 396.811V417.396H98.6006V396.811C98.6006 396.245 98.4896 395.711 98.2676 395.206C98.0658 394.701 97.7731 394.257 97.3896 393.874C97.0062 393.491 96.5622 393.198 96.0576 392.996C95.5531 392.774 95.0182 392.663 94.4531 392.663C93.888 392.663 93.3532 392.774 92.8486 392.996C92.3643 393.198 91.9303 393.491 91.5469 393.874C91.1836 394.257 90.891 394.701 90.6689 395.206C90.4671 395.711 90.3662 396.245 90.3662 396.811V417.396H82.1016V384.974H84.0996L86.3398 387.456C87.4902 386.487 88.7516 385.741 90.124 385.216C91.5166 384.671 92.9596 384.398 94.4531 384.398C95.9668 384.398 97.4401 384.681 98.873 385.246C100.326 385.811 101.598 386.79 102.688 388.183C103.192 387.496 103.767 386.911 104.413 386.427C105.059 385.942 105.735 385.549 106.441 385.246C107.168 384.943 107.915 384.731 108.682 384.61C109.449 384.469 110.205 384.398 110.952 384.398C112.668 384.398 114.272 384.721 115.766 385.367C117.279 386.013 118.591 386.901 119.701 388.031C120.831 389.141 121.719 390.453 122.365 391.967C123.011 393.48 123.334 395.095 123.334 396.811V417.396ZM142.285 409.465C142.608 409.566 142.931 409.636 143.254 409.677C143.577 409.697 143.9 409.707 144.223 409.707C145.03 409.707 145.807 409.596 146.554 409.374C147.3 409.152 147.997 408.839 148.643 408.436C149.309 408.012 149.894 407.507 150.398 406.922C150.923 406.316 151.347 405.65 151.67 404.924L157.725 411.009C156.958 412.099 156.07 413.077 155.061 413.945C154.072 414.813 152.992 415.55 151.821 416.155C150.671 416.761 149.45 417.215 148.158 417.518C146.887 417.84 145.575 418.002 144.223 418.002C141.942 418.002 139.793 417.578 137.774 416.73C135.776 415.883 134.021 414.702 132.507 413.188C131.013 411.675 129.833 409.879 128.965 407.8C128.097 405.701 127.663 403.4 127.663 400.897C127.663 398.334 128.097 395.993 128.965 393.874C129.833 391.755 131.013 389.949 132.507 388.455C134.021 386.962 135.776 385.801 137.774 384.974C139.793 384.146 141.942 383.732 144.223 383.732C145.575 383.732 146.897 383.894 148.188 384.217C149.48 384.54 150.701 385.004 151.852 385.609C153.022 386.215 154.112 386.962 155.121 387.85C156.13 388.717 157.018 389.696 157.785 390.786L142.285 409.465ZM146.523 392.421C146.14 392.28 145.757 392.189 145.373 392.148C145.01 392.108 144.626 392.088 144.223 392.088C143.092 392.088 142.023 392.3 141.014 392.724C140.025 393.127 139.157 393.713 138.41 394.479C137.684 395.246 137.108 396.175 136.685 397.265C136.261 398.334 136.049 399.545 136.049 400.897C136.049 401.2 136.059 401.543 136.079 401.927C136.119 402.31 136.17 402.704 136.23 403.107C136.311 403.491 136.402 403.864 136.503 404.228C136.604 404.591 136.735 404.914 136.896 405.196L146.523 392.421ZM160.298 387.002C160.298 385.206 160.641 383.521 161.327 381.946C162.013 380.372 162.942 379 164.112 377.829C165.303 376.638 166.686 375.7 168.26 375.014C169.834 374.327 171.519 373.984 173.315 373.984H193.235V382.673H173.315C172.71 382.673 172.145 382.784 171.62 383.006C171.095 383.228 170.631 383.541 170.228 383.944C169.844 384.328 169.541 384.782 169.319 385.307C169.097 385.831 168.986 386.396 168.986 387.002C168.986 387.607 169.097 388.183 169.319 388.728C169.541 389.252 169.844 389.716 170.228 390.12C170.631 390.504 171.095 390.806 171.62 391.028C172.145 391.25 172.71 391.361 173.315 391.361H182.004C183.8 391.361 185.485 391.704 187.06 392.391C188.654 393.057 190.036 393.985 191.207 395.176C192.398 396.346 193.326 397.729 193.992 399.323C194.678 400.897 195.021 402.583 195.021 404.379C195.021 406.175 194.678 407.86 193.992 409.435C193.326 411.009 192.398 412.391 191.207 413.582C190.036 414.753 188.654 415.681 187.06 416.367C185.485 417.053 183.8 417.396 182.004 417.396H162.72V408.708H182.004C182.609 408.708 183.174 408.597 183.699 408.375C184.224 408.153 184.678 407.85 185.062 407.467C185.465 407.063 185.778 406.599 186 406.074C186.222 405.549 186.333 404.984 186.333 404.379C186.333 403.773 186.222 403.208 186 402.684C185.778 402.159 185.465 401.705 185.062 401.321C184.678 400.918 184.224 400.605 183.699 400.383C183.174 400.161 182.609 400.05 182.004 400.05H173.315C171.519 400.05 169.834 399.707 168.26 399.021C166.686 398.334 165.303 397.406 164.112 396.235C162.942 395.045 162.013 393.662 161.327 392.088C160.641 390.493 160.298 388.798 160.298 387.002ZM231.198 400.897C231.198 403.319 230.764 405.58 229.896 407.679C229.029 409.757 227.848 411.564 226.354 413.098C224.861 414.611 223.105 415.812 221.087 416.7C219.089 417.568 216.939 418.002 214.639 418.002C212.358 418.002 210.209 417.568 208.19 416.7C206.192 415.812 204.437 414.611 202.923 413.098C201.429 411.564 200.249 409.757 199.381 407.679C198.513 405.58 198.079 403.319 198.079 400.897C198.079 398.435 198.513 396.155 199.381 394.056C200.249 391.957 201.429 390.15 202.923 388.637C204.437 387.103 206.192 385.902 208.19 385.034C210.209 384.166 212.358 383.732 214.639 383.732C216.939 383.732 219.089 384.146 221.087 384.974C223.105 385.781 224.861 386.941 226.354 388.455C227.848 389.949 229.029 391.755 229.896 393.874C230.764 395.973 231.198 398.314 231.198 400.897ZM222.873 400.897C222.873 399.565 222.651 398.365 222.207 397.295C221.783 396.205 221.198 395.277 220.451 394.51C219.704 393.723 218.826 393.127 217.817 392.724C216.828 392.3 215.769 392.088 214.639 392.088C213.508 392.088 212.439 392.3 211.43 392.724C210.441 393.127 209.573 393.723 208.826 394.51C208.1 395.277 207.524 396.205 207.101 397.295C206.677 398.365 206.465 399.565 206.465 400.897C206.465 402.149 206.677 403.309 207.101 404.379C207.524 405.449 208.1 406.377 208.826 407.164C209.573 407.951 210.441 408.577 211.43 409.041C212.439 409.485 213.508 409.707 214.639 409.707C215.769 409.707 216.828 409.495 217.817 409.071C218.826 408.647 219.704 408.052 220.451 407.285C221.198 406.518 221.783 405.59 222.207 404.5C222.651 403.41 222.873 402.209 222.873 400.897ZM244.095 417.396H235.77V372.077H244.095V417.396ZM274.247 413.612C273.581 414.218 272.865 414.793 272.098 415.338C271.351 415.863 270.564 416.327 269.736 416.73C268.909 417.114 268.051 417.417 267.163 417.639C266.295 417.881 265.407 418.002 264.499 418.002C262.501 418.002 260.624 417.649 258.868 416.942C257.112 416.236 255.568 415.237 254.236 413.945C252.924 412.633 251.885 411.049 251.118 409.192C250.371 407.315 249.998 405.216 249.998 402.896V384.974H258.232V402.896C258.232 403.985 258.394 404.964 258.717 405.832C259.06 406.68 259.514 407.396 260.079 407.981C260.644 408.567 261.3 409.011 262.047 409.313C262.814 409.616 263.631 409.768 264.499 409.768C265.347 409.768 266.144 409.576 266.891 409.192C267.658 408.789 268.324 408.264 268.889 407.618C269.454 406.972 269.898 406.246 270.221 405.438C270.544 404.611 270.705 403.763 270.705 402.896V384.974H278.97V417.396H276.972L274.247 413.612ZM301.554 417.396C299.556 417.396 297.679 417.023 295.923 416.276C294.167 415.509 292.623 414.47 291.291 413.158C289.979 411.826 288.94 410.282 288.173 408.526C287.426 406.771 287.053 404.894 287.053 402.896V393.269H283.026V385.034H287.053V372.077H295.287V385.034H307.82V393.269H295.287V402.896C295.287 403.763 295.449 404.581 295.771 405.348C296.094 406.094 296.538 406.75 297.104 407.315C297.669 407.881 298.335 408.335 299.102 408.678C299.868 409.001 300.686 409.162 301.554 409.162H307.82V417.396H301.554ZM322.23 376.164C322.23 376.931 322.079 377.647 321.776 378.313C321.494 378.979 321.1 379.565 320.596 380.069C320.091 380.554 319.496 380.947 318.81 381.25C318.144 381.533 317.427 381.674 316.66 381.674C315.893 381.674 315.167 381.533 314.48 381.25C313.814 380.947 313.229 380.554 312.725 380.069C312.24 379.565 311.847 378.979 311.544 378.313C311.261 377.647 311.12 376.931 311.12 376.164C311.12 375.417 311.261 374.711 311.544 374.045C311.847 373.359 312.24 372.773 312.725 372.289C313.229 371.785 313.814 371.391 314.48 371.108C315.167 370.806 315.893 370.654 316.66 370.654C317.427 370.654 318.144 370.806 318.81 371.108C319.496 371.391 320.091 371.785 320.596 372.289C321.1 372.773 321.494 373.359 321.776 374.045C322.079 374.711 322.23 375.417 322.23 376.164ZM320.808 417.396H312.482V384.974H320.808V417.396ZM358.468 400.897C358.468 403.319 358.034 405.58 357.166 407.679C356.298 409.757 355.118 411.564 353.624 413.098C352.131 414.611 350.375 415.812 348.356 416.7C346.358 417.568 344.209 418.002 341.908 418.002C339.628 418.002 337.478 417.568 335.46 416.7C333.462 415.812 331.706 414.611 330.192 413.098C328.699 411.564 327.518 409.757 326.65 407.679C325.783 405.58 325.349 403.319 325.349 400.897C325.349 398.435 325.783 396.155 326.65 394.056C327.518 391.957 328.699 390.15 330.192 388.637C331.706 387.103 333.462 385.902 335.46 385.034C337.478 384.166 339.628 383.732 341.908 383.732C344.209 383.732 346.358 384.146 348.356 384.974C350.375 385.781 352.131 386.941 353.624 388.455C355.118 389.949 356.298 391.755 357.166 393.874C358.034 395.973 358.468 398.314 358.468 400.897ZM350.143 400.897C350.143 399.565 349.921 398.365 349.477 397.295C349.053 396.205 348.467 395.277 347.721 394.51C346.974 393.723 346.096 393.127 345.087 392.724C344.098 392.3 343.038 392.088 341.908 392.088C340.778 392.088 339.708 392.3 338.699 392.724C337.71 393.127 336.842 393.723 336.096 394.51C335.369 395.277 334.794 396.205 334.37 397.295C333.946 398.365 333.734 399.565 333.734 400.897C333.734 402.149 333.946 403.309 334.37 404.379C334.794 405.449 335.369 406.377 336.096 407.164C336.842 407.951 337.71 408.577 338.699 409.041C339.708 409.485 340.778 409.707 341.908 409.707C343.038 409.707 344.098 409.495 345.087 409.071C346.096 408.647 346.974 408.052 347.721 407.285C348.467 406.518 349.053 405.59 349.477 404.5C349.921 403.41 350.143 402.209 350.143 400.897ZM371.304 417.396H363.039V384.974H365.037L367.762 388.122C369.094 386.911 370.597 385.983 372.272 385.337C373.968 384.671 375.734 384.338 377.57 384.338C379.548 384.338 381.415 384.721 383.171 385.488C384.927 386.235 386.461 387.274 387.772 388.606C389.084 389.918 390.114 391.462 390.86 393.238C391.627 394.994 392.011 396.871 392.011 398.869V417.396H383.746V398.869C383.746 398.021 383.585 397.224 383.262 396.478C382.939 395.711 382.495 395.045 381.93 394.479C381.365 393.914 380.709 393.47 379.962 393.147C379.215 392.825 378.418 392.663 377.57 392.663C376.702 392.663 375.885 392.825 375.118 393.147C374.351 393.47 373.685 393.914 373.12 394.479C372.555 395.045 372.111 395.711 371.788 396.478C371.465 397.224 371.304 398.021 371.304 398.869V417.396ZM441.871 417.396H433.213V386.396C433.213 385.791 433.092 385.226 432.85 384.701C432.628 384.176 432.315 383.722 431.911 383.339C431.528 382.935 431.074 382.622 430.549 382.4C430.024 382.178 429.459 382.067 428.854 382.067C428.248 382.067 427.683 382.178 427.158 382.4C426.633 382.622 426.169 382.935 425.766 383.339C425.382 383.722 425.079 384.176 424.857 384.701C424.635 385.226 424.524 385.791 424.524 386.396V417.396H415.836V386.396C415.836 385.791 415.725 385.226 415.503 384.701C415.281 384.176 414.968 383.722 414.564 383.339C414.181 382.935 413.727 382.622 413.202 382.4C412.677 382.178 412.112 382.067 411.507 382.067C410.901 382.067 410.336 382.178 409.812 382.4C409.287 382.622 408.823 382.935 408.419 383.339C408.035 383.722 407.733 384.176 407.511 384.701C407.289 385.226 407.178 385.791 407.178 386.396V417.396H398.489V386.396C398.489 384.6 398.822 382.915 399.488 381.341C400.174 379.746 401.103 378.364 402.273 377.193C403.464 376.003 404.847 375.074 406.421 374.408C408.015 373.722 409.711 373.379 411.507 373.379C413.121 373.379 414.675 373.672 416.169 374.257C417.662 374.822 419.005 375.649 420.195 376.739C421.386 375.649 422.718 374.822 424.191 374.257C425.685 373.672 427.239 373.379 428.854 373.379C430.65 373.379 432.335 373.722 433.909 374.408C435.504 375.074 436.886 376.003 438.057 377.193C439.247 378.364 440.176 379.746 440.842 381.341C441.528 382.915 441.871 384.6 441.871 386.396V417.396ZM479.804 417.396H477.806L474.597 412.946C473.81 413.653 472.972 414.319 472.084 414.944C471.216 415.55 470.298 416.085 469.329 416.549C468.36 416.993 467.361 417.346 466.332 417.608C465.323 417.871 464.294 418.002 463.244 418.002C460.964 418.002 458.814 417.618 456.796 416.852C454.798 416.085 453.042 414.975 451.528 413.521C450.035 412.048 448.854 410.252 447.986 408.133C447.118 406.014 446.685 403.602 446.685 400.897C446.685 398.375 447.118 396.064 447.986 393.965C448.854 391.846 450.035 390.029 451.528 388.516C453.042 387.002 454.798 385.831 456.796 385.004C458.814 384.156 460.964 383.732 463.244 383.732C464.294 383.732 465.333 383.864 466.362 384.126C467.392 384.388 468.391 384.752 469.359 385.216C470.328 385.68 471.246 386.225 472.114 386.851C473.002 387.476 473.83 388.152 474.597 388.879L477.806 385.034H479.804V417.396ZM471.479 400.897C471.479 399.767 471.257 398.677 470.812 397.628C470.389 396.558 469.803 395.62 469.057 394.812C468.31 393.985 467.432 393.329 466.423 392.845C465.434 392.34 464.374 392.088 463.244 392.088C462.114 392.088 461.044 392.28 460.035 392.663C459.046 393.047 458.178 393.612 457.432 394.358C456.705 395.105 456.13 396.034 455.706 397.144C455.282 398.233 455.07 399.485 455.07 400.897C455.07 402.31 455.282 403.572 455.706 404.682C456.13 405.771 456.705 406.69 457.432 407.437C458.178 408.183 459.046 408.748 460.035 409.132C461.044 409.515 462.114 409.707 463.244 409.707C464.374 409.707 465.434 409.465 466.423 408.98C467.432 408.476 468.31 407.82 469.057 407.013C469.803 406.185 470.389 405.247 470.812 404.197C471.257 403.128 471.479 402.028 471.479 400.897ZM494.456 417.396H486.131V372.077H494.456V400.655L506.777 385.034H516.283L505.536 398.536L516.283 417.396H506.777L500.208 405.62L494.456 413.249V417.396ZM531.42 409.465C531.743 409.566 532.066 409.636 532.389 409.677C532.712 409.697 533.035 409.707 533.357 409.707C534.165 409.707 534.942 409.596 535.688 409.374C536.435 409.152 537.132 408.839 537.777 408.436C538.443 408.012 539.029 407.507 539.533 406.922C540.058 406.316 540.482 405.65 540.805 404.924L546.859 411.009C546.092 412.099 545.204 413.077 544.195 413.945C543.206 414.813 542.127 415.55 540.956 416.155C539.806 416.761 538.585 417.215 537.293 417.518C536.021 417.84 534.71 418.002 533.357 418.002C531.077 418.002 528.927 417.578 526.909 416.73C524.911 415.883 523.155 414.702 521.642 413.188C520.148 411.675 518.967 409.879 518.1 407.8C517.232 405.701 516.798 403.4 516.798 400.897C516.798 398.334 517.232 395.993 518.1 393.874C518.967 391.755 520.148 389.949 521.642 388.455C523.155 386.962 524.911 385.801 526.909 384.974C528.927 384.146 531.077 383.732 533.357 383.732C534.71 383.732 536.032 383.894 537.323 384.217C538.615 384.54 539.836 385.004 540.986 385.609C542.157 386.215 543.247 386.962 544.256 387.85C545.265 388.717 546.153 389.696 546.92 390.786L531.42 409.465ZM535.658 392.421C535.275 392.28 534.891 392.189 534.508 392.148C534.145 392.108 533.761 392.088 533.357 392.088C532.227 392.088 531.158 392.3 530.148 392.724C529.16 393.127 528.292 393.713 527.545 394.479C526.818 395.246 526.243 396.175 525.819 397.265C525.396 398.334 525.184 399.545 525.184 400.897C525.184 401.2 525.194 401.543 525.214 401.927C525.254 402.31 525.305 402.704 525.365 403.107C525.446 403.491 525.537 403.864 525.638 404.228C525.739 404.591 525.87 404.914 526.031 405.196L535.658 392.421ZM559.362 417.396H551.098V384.974H553.096L555.82 388.818C557.152 387.607 558.666 386.679 560.361 386.033C562.057 385.367 563.812 385.034 565.629 385.034H572.925V393.269H565.629C564.761 393.269 563.944 393.43 563.177 393.753C562.41 394.076 561.744 394.52 561.179 395.085C560.614 395.65 560.17 396.316 559.847 397.083C559.524 397.85 559.362 398.667 559.362 399.535V417.396Z" fill="white"/>
</svg>
