<svg width="56" height="80" viewBox="0 0 56 80" fill="none" xmlns="http://www.w3.org/2000/svg">
<path d="M53 76.6738H3" stroke="white" stroke-width="6" stroke-linecap="round" stroke-linejoin="round"/>
<path d="M51.3935 26.5836C51.3935 39.6105 28 64.5709 28 64.5709C28 64.5709 4.60657 39.6105 4.60657 26.5836C4.60657 20.3288 7.07121 14.3302 11.4583 9.90743C15.8455 5.48466 21.7957 3 28 3C34.2043 3 40.1545 5.48466 44.5416 9.90743C48.9288 14.3302 51.3935 20.3288 51.3935 26.5836Z" fill="#365870" stroke="white" stroke-width="6" stroke-linecap="round" stroke-linejoin="round"/>
<path d="M37.6438 25.9237C37.6438 27.8461 37.0783 29.7254 36.0188 31.3239C34.9594 32.9224 33.4536 34.1684 31.6918 34.9041C29.93 35.6399 27.9914 35.8324 26.1211 35.4574C24.2507 35.0825 22.5327 34.1569 21.1841 32.7976C19.8356 31.4383 18.9172 29.7064 18.545 27.8209C18.1728 25.9354 18.3635 23.981 19.093 22.2048C19.8226 20.4286 21.0582 18.9103 22.6436 17.842C24.2291 16.7738 26.0932 16.2034 28.0002 16.2031C30.5574 16.2035 33.0099 17.2277 34.8183 19.0506C36.6267 20.8734 37.643 23.3456 37.6438 25.9237Z" fill="#365870" stroke="white" stroke-width="6" stroke-linecap="round" stroke-linejoin="round"/>
</svg>
