<svg width="89" height="89" viewBox="0 0 89 89" fill="none" xmlns="http://www.w3.org/2000/svg">
<path d="M32.1512 84.3649H7.41663C5.89621 84.3649 4.63538 83.1041 4.63538 81.5837V59.3337C4.63538 53.697 9.19663 49.1357 14.8333 49.1357H32.1512C33.6716 49.1357 34.9325 50.3966 34.9325 51.917V81.5837C34.9325 83.1041 33.6716 84.3649 32.1512 84.3649ZM10.1979 78.8024H29.37V54.6982H14.8333C12.2745 54.6982 10.1979 56.7749 10.1979 59.3337V78.8024Z" fill="black"/>
<path d="M56.8495 84.3643H32.1147C30.5943 84.3643 29.3335 83.1034 29.3335 81.583V44.4997C29.3335 38.863 33.8947 34.3018 39.5316 34.3018H49.4328C55.0695 34.3018 59.6307 38.863 59.6307 44.4997V81.583C59.6307 83.1034 58.407 84.3643 56.8495 84.3643ZM34.933 78.8018H54.1053V44.4997C54.1053 41.9409 52.0286 39.8643 49.4699 39.8643H39.5686C37.0097 39.8643 34.933 41.9409 34.933 44.4997V78.8018Z" fill="black"/>
<path d="M81.5837 84.3649H56.8491C55.3287 84.3649 54.0679 83.1041 54.0679 81.5837V63.042C54.0679 61.5216 55.3287 60.2607 56.8491 60.2607H74.167C79.8037 60.2607 84.3649 64.822 84.3649 70.4587V81.5837C84.3649 83.1041 83.1041 84.3649 81.5837 84.3649ZM59.6304 78.8024H78.8024V70.4587C78.8024 67.8999 76.7258 65.8232 74.167 65.8232H59.6304V78.8024Z" fill="black"/>
<path d="M50.8038 30.9646C49.9138 30.9646 48.8013 30.7049 47.5404 29.9632L44.4996 28.1462L41.4958 29.9262C38.455 31.7433 36.4525 30.6679 35.7108 30.1487C34.9691 29.6295 33.3746 27.9979 34.1533 24.5862L34.8579 21.5082L32.3362 18.9866C30.7787 17.4291 30.2225 15.5749 30.7787 13.8691C31.335 12.1632 32.8554 10.9765 35.0062 10.6057L38.2325 10.0495L40.0496 6.41539C42.0521 2.44747 46.91 2.44747 48.8754 6.41539L50.6925 10.0495L53.9188 10.6057C56.0696 10.9765 57.6271 12.1632 58.1463 13.8691C58.7025 15.5749 58.1092 17.4291 56.5888 18.9866L54.0671 21.5082L54.7717 24.5862C55.5504 28.0349 53.9558 29.6296 53.2142 30.1858C52.8804 30.4825 52.0275 30.9646 50.8038 30.9646ZM44.4996 22.5466C45.3896 22.5466 46.2796 22.7691 47.0213 23.2141L49.0979 24.4379L48.6529 22.4353C48.2821 20.8778 48.8383 18.9866 49.9879 17.837L51.8792 15.9457L49.5429 15.5379C48.0596 15.2783 46.6133 14.2029 45.9458 12.8679L44.4996 10.0866L43.0904 12.8679C42.4229 14.2029 40.9767 15.2783 39.4933 15.5379L37.1571 15.9087L39.0483 17.7999C40.1979 18.9495 40.7171 20.8408 40.3833 22.3983L39.9383 24.4007L42.015 23.177C42.7196 22.732 43.6096 22.5466 44.4996 22.5466Z" fill="black"/>
</svg>
