<svg width="81" height="81" viewBox="0 0 81 81" fill="none" xmlns="http://www.w3.org/2000/svg">
<g clip-path="url(#clip0_39_28)">
<path d="M32.394 40.2566L37.8065 34.8455C31.5089 31.9514 23.7985 33.0927 18.618 38.2745C11.9714 44.92 11.9714 55.7357 18.618 62.3836C25.2633 69.0303 36.0805 69.0303 42.7259 62.3836C47.9065 57.2032 49.049 49.4916 46.155 43.1938L40.7427 48.6061C41.2776 51.7664 40.3388 55.1279 37.9047 57.5611C33.9164 61.5506 27.4277 61.5506 23.4396 57.5611C19.4513 53.5728 19.4513 47.0842 23.4396 43.097C25.8735 40.6616 29.235 39.7216 32.394 40.2566Z" fill="black"/>
<path d="M51.199 38.1509C56.6292 47.3071 55.4139 59.3405 47.5483 67.2049C38.2419 76.5114 23.1017 76.5114 13.7965 67.2049C4.49001 57.8999 4.49001 42.7583 13.7965 33.452C21.6596 25.5875 33.6945 24.3722 42.8505 29.8013L47.7889 24.8614C35.8625 16.8416 19.5095 18.095 8.9738 28.6293C-2.99094 40.5928 -2.99094 60.0627 8.9738 72.0262C20.9387 83.9923 40.4061 83.9923 52.3708 72.0262C62.9076 61.4906 64.1598 45.1376 56.1375 33.2097L51.199 38.1509Z" fill="black"/>
<path d="M80.886 13.4226C80.6313 12.759 79.9867 12.35 79.2568 12.3832L68.0932 12.9069L68.6181 1.74471C68.6499 1.01349 68.2409 0.371506 67.5774 0.114268C66.9177 -0.140439 66.1343 0.0429183 65.5967 0.577961L53.6842 12.4916L53.0816 25.357L31.4245 47.0126C30.3228 46.763 29.1203 47.0585 28.2617 47.9169C26.9294 49.2493 26.9294 51.4072 28.2617 52.7396C29.5929 54.072 31.752 54.072 33.0844 52.7396C33.9416 51.881 34.2385 50.6785 33.9887 49.5755L55.6445 27.9185L68.5086 27.3173L80.4224 15.4021C80.9587 14.8659 81.1408 14.0849 80.886 13.4226Z" fill="black"/>
</g>
<defs>
<clipPath id="clip0_39_28">
<rect width="81" height="81" fill="white"/>
</clipPath>
</defs>
</svg>
