<svg width="73" height="73" viewBox="0 0 73 73" fill="none" xmlns="http://www.w3.org/2000/svg">
<g clip-path="url(#clip0_32_51)">
<path d="M70.9088 47.7176L61.0236 37.8326C58.2419 35.0512 53.7162 35.0513 50.9346 37.8326L43.292 45.4752C43.2917 45.4755 43.2916 45.4757 43.2911 45.4761L43.2909 45.4764C42.3635 46.403 40.8555 46.4028 39.9283 45.4761L27.5227 33.0705C26.5933 32.1412 26.593 30.6376 27.5224 29.7075L27.5229 29.7072C27.5231 29.7069 27.5233 29.7068 27.5237 29.7064L35.1662 22.0639C37.9543 19.2758 37.9544 14.763 35.1662 11.9749L25.2811 2.0897C22.4991 -0.691287 17.9736 -0.69143 15.1917 2.0897C13.9747 3.30675 5.5222 11.7591 4.18539 13.096C1.40398 15.8773 -0.00412569 19.1286 9.07949e-06 22.76C0.0118431 33.1523 11.7358 44.1876 20.2733 52.7253C28.814 61.266 39.8465 72.9864 50.2383 72.9984C50.2438 72.9984 50.2487 72.9984 50.2542 72.9984C53.8787 72.9982 57.1249 71.5901 59.9018 68.8133C61.5641 67.1511 69.5723 59.1431 70.9087 57.807C73.6971 55.0184 73.6971 50.506 70.9088 47.7176ZM18.5546 5.45312C19.4817 4.52636 20.9906 4.52565 21.9181 5.45298L31.8031 15.3381C32.7324 16.2672 32.7325 17.7716 31.8031 18.7009L25.8413 24.6627L12.5929 11.4146L18.5546 5.45312ZM56.5391 65.4499C54.6603 67.3288 52.6046 68.2421 50.2544 68.2421C50.2511 68.2421 50.2474 68.2421 50.244 68.2421C41.702 68.2323 30.3499 56.0765 23.6368 49.3621C16.2076 41.9333 4.76568 31.1031 4.75599 22.7544C4.75328 20.3999 5.66663 18.3408 7.54809 16.4592L9.22966 14.7776L22.7642 28.3117C22.3099 29.2604 22.0698 30.3061 22.0698 31.3887C22.0698 33.2942 22.8121 35.0858 24.1596 36.4333L36.5652 48.8389C38.7572 51.0311 42.032 51.4942 44.6834 50.2312L58.2208 63.7682L56.5391 65.4499ZM67.5458 54.4435L61.5838 60.4053L48.3356 47.1575L54.2976 41.1957C55.2249 40.2684 56.7334 40.2684 57.6606 41.1957L67.5458 51.0807C68.4752 52.0099 68.4753 53.5142 67.5458 54.4435Z" fill="white"/>
</g>
<defs>
<clipPath id="clip0_32_51">
<rect width="73" height="73" fill="white"/>
</clipPath>
</defs>
</svg>
