<svg width="71" height="71" viewBox="0 0 71 71" fill="none" xmlns="http://www.w3.org/2000/svg">
<path d="M35.5 42.9444V54.1111M35.5 42.9444C26.4961 42.9444 18.9856 36.5504 17.2612 28.0556M35.5 42.9444C44.5041 42.9444 52.0144 36.5504 53.7389 28.0556M35.5 54.1111C38.9617 54.1111 40.6925 54.1111 42.1125 54.4915C45.9658 55.5241 48.9759 58.5342 50.0085 62.3875C50.3889 63.8075 50.3889 65.5383 50.3889 69H20.6111C20.6111 65.5383 20.6111 63.8075 20.9916 62.3875C22.0241 58.5342 25.0341 55.5241 28.8875 54.4915C30.3075 54.1111 32.0383 54.1111 35.5 54.1111ZM17.2612 28.0556H16.8889H15.9583C13.364 28.0556 12.0669 28.0556 10.9882 27.841C6.55846 26.9599 3.09567 23.4971 2.21455 19.0674C2 17.9887 2 16.6915 2 14.0972C2 13.2324 2 12.8001 2.0715 12.4405C2.36522 10.9639 3.51949 9.80967 4.99605 9.51595C5.35562 9.44444 5.78799 9.44444 6.65278 9.44444H16.8889M17.2612 28.0556C17.017 26.8529 16.8889 25.6081 16.8889 24.3333V7.84921C16.8889 5.86482 16.8889 4.87266 17.2575 4.10722C17.6234 3.34748 18.2364 2.73447 18.9961 2.36861C19.7616 2 20.7537 2 22.7381 2H48.262C50.2463 2 51.2383 2 52.004 2.36861C52.7637 2.73447 53.3767 3.34748 53.7426 4.10722C54.1111 4.87266 54.1111 5.86482 54.1111 7.84921V24.3333C54.1111 25.6081 53.9831 26.8529 53.7389 28.0556M53.7389 28.0556H54.1111H55.0417C57.6361 28.0556 58.9333 28.0556 60.012 27.841C64.4414 26.9599 67.9042 23.4971 68.7856 19.0674C69 17.9887 69 16.6915 69 14.0972C69 13.2324 69 12.8001 68.9285 12.4405C68.6349 10.9639 67.4806 9.80967 66.004 9.51595C65.6444 9.44444 65.2119 9.44444 64.3472 9.44444H54.1111" stroke="black" stroke-width="4" stroke-linecap="round" stroke-linejoin="round"/>
</svg>
