<svg width="87" height="87" viewBox="0 0 87 87" fill="none" xmlns="http://www.w3.org/2000/svg">
<g clip-path="url(#clip0_32_63)">
<path d="M64.3756 49.9915C64.2061 49.9101 57.8636 46.7869 56.7365 46.3812C56.2764 46.216 55.7835 46.0547 55.2592 46.0547C54.4028 46.0547 53.6833 46.4815 53.1229 47.3199C52.4893 48.2616 50.5714 50.5036 49.9788 51.1733C49.9014 51.2617 49.7957 51.3674 49.7324 51.3674C49.6757 51.3674 48.6941 50.9631 48.3969 50.8341C41.5931 47.8786 36.4288 40.7714 35.7206 39.5729C35.6195 39.4006 35.6153 39.3224 35.6144 39.3224C35.6393 39.2311 35.8681 39.0018 35.9862 38.8834C36.3316 38.5416 36.7059 38.0911 37.068 37.6553C37.2395 37.4488 37.4112 37.242 37.5798 37.0471C38.1052 36.4358 38.3391 35.9613 38.6103 35.4116L38.7524 35.126C39.4145 33.8106 38.849 32.7005 38.6662 32.342C38.5162 32.0421 35.8381 25.5786 35.5534 24.8996C34.8687 23.261 33.964 22.498 32.7067 22.498C32.5901 22.498 32.7067 22.498 32.2175 22.5187C31.6218 22.5438 28.3776 22.9709 26.9432 23.8751C25.4222 24.8341 22.8489 27.8909 22.8489 33.2668C22.8489 38.1052 25.9193 42.6736 27.2376 44.411C27.2703 44.4548 27.3305 44.5438 27.4178 44.6715C32.4663 52.0444 38.76 57.5085 45.1401 60.0572C51.2823 62.5107 54.1909 62.7943 55.8445 62.7943H55.8448C56.5396 62.7943 57.0958 62.7398 57.5865 62.6915L57.8977 62.6618C60.0196 62.4737 64.6826 60.0575 65.7433 57.1099C66.5788 54.7883 66.7991 52.2518 66.2432 51.3312C65.8625 50.7053 65.2063 50.3903 64.3756 49.9915Z" fill="white"/>
<path d="M44.2722 0C20.7099 0 1.54051 19.0253 1.54051 42.4105C1.54051 49.9742 3.56467 57.3779 7.39917 63.8577L0.0598175 85.5074C-0.0768967 85.9111 0.0247915 86.3574 0.32336 86.6613C0.538882 86.8814 0.831236 87 1.1298 87C1.2442 87 1.35945 86.9828 1.47187 86.9469L24.0467 79.7733C30.2242 83.074 37.2063 84.8163 44.2725 84.8163C67.8325 84.8165 86.9999 65.7932 86.9999 42.4105C86.9999 19.0253 67.8325 0 44.2722 0ZM44.2722 75.9821C37.6232 75.9821 31.1832 74.0621 25.6474 70.4296C25.4613 70.3073 25.2452 70.2446 25.0277 70.2446C24.9127 70.2446 24.7975 70.2621 24.6853 70.2977L13.3767 73.8924L17.0274 63.1222C17.1454 62.7736 17.0864 62.3892 16.8689 62.092C12.6533 56.3319 10.425 49.5264 10.425 42.4105C10.425 23.8968 25.6087 8.83445 44.2719 8.83445C62.9328 8.83445 78.1149 23.8968 78.1149 42.4105C78.1152 60.922 62.9334 75.9821 44.2722 75.9821Z" fill="white"/>
</g>
<defs>
<clipPath id="clip0_32_63">
<rect width="87" height="87" fill="white"/>
</clipPath>
</defs>
</svg>
