<svg width="70" height="70" viewBox="0 0 70 70" fill="none" xmlns="http://www.w3.org/2000/svg">
<g clip-path="url(#clip0_39_33)">
<path d="M51.7963 40.2227C51.6599 40.1572 46.5568 37.6443 45.6499 37.3179C45.2797 37.185 44.8831 37.0552 44.4613 37.0552C43.7722 37.0552 43.1934 37.3986 42.7424 38.0731C42.2327 38.8309 40.6895 40.6347 40.2127 41.1736C40.1504 41.2447 40.0654 41.3297 40.0145 41.3297C39.9688 41.3297 39.179 41.0045 38.9399 40.9007C33.4656 38.5227 29.3104 32.8043 28.7406 31.84C28.6593 31.7013 28.6559 31.6384 28.6552 31.6384C28.6752 31.565 28.8593 31.3804 28.9543 31.2852C29.2322 31.0102 29.5334 30.6477 29.8247 30.297C29.9627 30.1309 30.1009 29.9645 30.2365 29.8077C30.6593 29.3159 30.8474 28.9341 31.0656 28.4918L31.1799 28.262C31.7127 27.2036 31.2577 26.3104 31.1106 26.022C30.9899 25.7807 28.8352 20.5802 28.6061 20.0338C28.0552 18.7154 27.3272 18.1016 26.3156 18.1016C26.2218 18.1016 26.3156 18.1016 25.922 18.1182C25.4427 18.1384 22.8324 18.482 21.6784 19.2095C20.4545 19.9811 18.384 22.4407 18.384 26.7661C18.384 30.6591 20.8545 34.3347 21.9152 35.7327C21.9415 35.7679 21.9899 35.8395 22.0602 35.9422C26.1222 41.8745 31.1861 46.2709 36.3195 48.3216C41.2615 50.2956 43.6018 50.5238 44.9322 50.5238H44.9324C45.4915 50.5238 45.939 50.48 46.3338 50.4411L46.5843 50.4172C48.2915 50.2659 52.0434 48.3218 52.8968 45.9502C53.569 44.0822 53.7463 42.0413 53.299 41.3006C52.9927 40.797 52.4647 40.5436 51.7963 40.2227Z" fill="black"/>
<path d="M35.6213 0C16.6631 0 1.23949 15.3077 1.23949 34.1234C1.23949 40.2091 2.86813 46.1661 5.95336 51.3798L0.048129 68.7991C-0.0618709 69.1239 0.0199472 69.483 0.260174 69.7275C0.433584 69.9045 0.668811 70 0.909038 70C1.00108 70 1.09381 69.9861 1.18427 69.9573L19.3479 64.1855C24.3184 66.8411 29.9361 68.243 35.6215 68.243C54.5779 68.2432 69.9999 52.937 69.9999 34.1234C69.9999 15.3077 54.5779 0 35.6213 0ZM35.6213 61.135C30.2715 61.135 25.0899 59.5902 20.6359 56.6675C20.4861 56.5691 20.3122 56.5186 20.1372 56.5186C20.0447 56.5186 19.952 56.5327 19.8618 56.5614L10.7629 59.4536L13.7002 50.788C13.7952 50.5075 13.7477 50.1982 13.5727 49.9591C10.1809 45.3245 8.3879 39.8489 8.3879 34.1234C8.3879 19.2273 20.6047 7.10818 35.6211 7.10818C50.6356 7.10818 62.8511 19.2273 62.8511 34.1234C62.8513 49.0177 50.6361 61.135 35.6213 61.135Z" fill="black"/>
</g>
<defs>
<clipPath id="clip0_39_33">
<rect width="70" height="70" fill="white"/>
</clipPath>
</defs>
</svg>
