<svg width="102" height="102" viewBox="0 0 102 102" fill="none" xmlns="http://www.w3.org/2000/svg">
<g clip-path="url(#clip0_33_70)">
<path fill-rule="evenodd" clip-rule="evenodd" d="M40.741 64.19V35.5697C50.9013 40.3506 58.7703 44.969 68.0771 49.9483C60.401 54.2053 50.9013 58.9818 40.741 64.19ZM97.3641 21.3355C95.6115 19.0265 92.6244 17.229 89.4443 16.634C80.0968 14.8589 21.782 14.8539 12.4397 16.634C9.88945 17.112 7.61857 18.2676 5.6678 20.063C-2.55185 27.6921 0.0237975 68.6045 2.00505 75.2317C2.83819 78.1002 3.91522 80.169 5.27162 81.527C7.01918 83.3223 9.41188 84.5585 12.1602 85.1129C19.8566 86.7049 59.507 87.595 89.2816 85.352C92.0249 84.8739 94.4531 83.5979 96.3684 81.7262C103.968 74.1276 103.45 30.9177 97.3641 21.3355Z" fill="white"/>
</g>
<defs>
<clipPath id="clip0_33_70">
<rect width="102" height="102" fill="white"/>
</clipPath>
</defs>
</svg>
